<svg width="364" height="189" viewBox="0 0 364 189" fill="none" xmlns="http://www.w3.org/2000/svg">
<path d="M163.847 11.9997C156.24 9.82288 148.509 8.28331 140.655 7.38096C137.246 7.42854 133.836 7.487 130.425 7.55635C115.214 8.16001 100.352 10.705 85.839 15.1915C76.6838 17.9935 67.8356 21.5443 59.2945 25.8441C55.4312 27.744 51.7175 29.8926 48.1536 32.2899C44.6321 34.7114 41.2748 37.3169 38.0818 40.1063C34.8658 42.9163 31.8244 45.9218 28.9576 49.1228C25.6246 52.8433 22.5969 56.7667 19.8743 60.893C16.1949 66.4938 13.0244 72.3636 10.3628 78.5023C7.523 85.0896 5.59665 91.9359 4.58374 99.0413C4.00178 103.157 3.99727 107.295 4.57023 111.455C5.25497 116.342 6.57301 121.035 8.52434 125.534C10.3007 129.653 12.5187 133.49 15.1784 137.047C17.8767 140.693 20.9824 143.893 24.4955 146.647C31.854 152.456 39.7266 157.476 48.1133 161.706C63.6163 169.461 79.8075 175.278 96.6868 179.158C114.081 183.198 131.702 185.351 149.55 185.617C166.404 186.089 183.21 185.269 199.969 183.159C214.949 181.232 229.734 178.312 244.324 174.397C262.64 169.471 280.358 162.96 297.477 154.864C301.783 152.858 305.981 150.639 310.071 148.206C312.604 146.668 315.131 145.041 317.651 143.328C320.607 141.267 323.46 139.07 326.213 136.736C328.297 135.02 330.329 133.256 332.309 131.447C334.289 129.659 336.228 127.803 338.127 125.879C342.32 121.618 346.083 117.048 349.416 112.17C352.606 107.502 355.126 102.524 356.975 97.2347C358.454 93.0819 359.482 88.8053 360.058 84.4048C360.799 78.638 360.819 72.8741 360.118 67.1131C356.045 61.9041 350.926 58.2082 344.76 56.0255C338.424 53.7677 331.937 52.0364 325.301 50.8316C317.612 49.3272 309.905 48.1492 302.179 47.2978C294.368 46.3979 286.515 45.8668 278.619 45.7046C271.049 45.5825 263.529 45.1358 256.061 44.3645C248.536 43.437 241.116 42.188 233.802 40.6174C227.201 39.1744 220.667 37.3203 214.201 35.0551C211.735 34.2388 209.349 33.1869 207.042 31.8991C200.077 28.0116 193.017 24.2607 185.862 20.6464C178.792 17.0805 171.453 14.1983 163.847 11.9997Z" fill="url(#paint0_linear)"/>
<defs>
<linearGradient id="paint0_linear" x1="31.8158" y1="102.308" x2="153.28" y2="96.4123" gradientUnits="userSpaceOnUse">
<stop stop-color="#DCE6F2"/>
<stop offset="1" stop-color="#EFF2F9"/>
</linearGradient>
</defs>
</svg>
