<svg width="60" height="60" viewBox="0 0 60 60" fill="none" xmlns="http://www.w3.org/2000/svg">
<path fill-rule="evenodd" clip-rule="evenodd" d="M46.5654 10.179C46.1233 8.39329 45.3039 7.16721 44.1642 6.50924C43.0246 5.85126 41.553 5.75464 39.7855 6.26461C38.0153 6.77534 36.0111 7.87962 33.8978 9.52172C29.6742 12.8035 25.1332 18.1412 21.3079 24.7668C17.4826 31.3924 15.1305 37.9939 14.4002 43.2925C14.0348 45.9437 14.0805 48.2316 14.5233 50.02C14.9654 51.8057 15.7849 53.0318 16.9245 53.6898C18.0642 54.3477 19.5357 54.4444 21.3033 53.9344C23.0734 53.4237 25.0777 52.3194 27.191 50.6773C31.4146 47.3955 35.9556 42.0578 39.7809 35.4322C43.6062 28.8066 45.9582 22.2051 46.6886 16.9065C47.054 14.2553 47.0082 11.9674 46.5654 10.179ZM40.4006 35.79C48.1203 22.4192 49.9655 9.03224 44.5221 5.88946C39.0786 2.74667 28.4078 11.0381 20.6881 24.409C12.9685 37.7798 11.1232 51.1667 16.5667 54.3095C22.0102 57.4523 32.681 49.1608 40.4006 35.79Z" fill="url(#paint0_linear)"/>
<path fill-rule="evenodd" clip-rule="evenodd" d="M21.3032 6.0657C19.5357 5.55574 18.0642 5.65235 16.9245 6.31033C15.7849 6.9683 14.9654 8.19439 14.5233 9.9801C14.0805 11.7685 14.0347 14.0564 14.4002 16.7076C15.1305 22.0062 17.4826 28.6077 21.3079 35.2333C25.1332 41.8589 29.6742 47.1966 33.8977 50.4784C36.0111 52.1205 38.0153 53.2248 39.7855 53.7355C41.553 54.2454 43.0246 54.1488 44.1642 53.4909C45.3039 52.8329 46.1233 51.6068 46.5654 49.8211C47.0082 48.0327 47.054 45.7448 46.6885 43.0936C45.9582 37.795 43.6061 31.1935 39.7808 24.5679C35.9556 17.9423 31.4145 12.6046 27.191 9.32282C25.0777 7.68072 23.0734 6.57644 21.3032 6.0657ZM40.4006 24.2101C32.681 10.8392 22.0101 2.54777 16.5667 5.69055C11.1232 8.83334 12.9684 22.2203 20.6881 35.5911C28.4078 48.9619 39.0786 57.2534 44.522 54.1106C49.9655 50.9678 48.1203 37.5809 40.4006 24.2101Z" fill="url(#paint1_linear)"/>
<path fill-rule="evenodd" clip-rule="evenodd" d="M55.9024 33.9463C57.2278 32.6706 57.8799 31.3479 57.8799 30.0319C57.8799 28.716 57.2278 27.3933 55.9024 26.1175C54.575 24.8399 52.6165 23.6563 50.1378 22.6471C45.1839 20.6303 38.2908 19.3665 30.6402 19.3665C22.9896 19.3665 16.0966 20.6303 11.1427 22.6471C8.6639 23.6563 6.70544 24.8399 5.37804 26.1175C4.05263 27.3933 3.40053 28.716 3.40053 30.0319C3.40053 31.3479 4.05263 32.6706 5.37804 33.9463C6.70544 35.224 8.6639 36.4075 11.1427 37.4167C16.0966 39.4335 22.9896 40.6973 30.6402 40.6973C38.2908 40.6973 45.1839 39.4335 50.1378 37.4167C52.6165 36.4075 54.575 35.224 55.9024 33.9463ZM30.6402 41.4129C46.0795 41.4129 58.5956 36.3175 58.5956 30.0319C58.5956 23.7463 46.0795 18.6509 30.6402 18.6509C15.2009 18.6509 2.68488 23.7463 2.68488 30.0319C2.68488 36.3175 15.2009 41.4129 30.6402 41.4129Z" fill="url(#paint2_linear)"/>
<path fill-rule="evenodd" clip-rule="evenodd" d="M46.5654 10.179C46.1233 8.39329 45.3039 7.16721 44.1642 6.50924C43.0246 5.85126 41.553 5.75464 39.7855 6.26461C38.0153 6.77534 36.0111 7.87962 33.8978 9.52172C29.6742 12.8035 25.1332 18.1412 21.3079 24.7668C17.4826 31.3924 15.1305 37.9939 14.4002 43.2925C14.0348 45.9437 14.0805 48.2316 14.5233 50.02C14.9654 51.8057 15.7849 53.0318 16.9245 53.6898C18.0642 54.3477 19.5357 54.4444 21.3033 53.9344C23.0734 53.4237 25.0777 52.3194 27.191 50.6773C31.4146 47.3955 35.9556 42.0578 39.7809 35.4322C43.6062 28.8066 45.9582 22.2051 46.6886 16.9065C47.054 14.2553 47.0082 11.9674 46.5654 10.179ZM40.4006 35.79C48.1203 22.4192 49.9655 9.03224 44.5221 5.88946C39.0786 2.74667 28.4078 11.0381 20.6881 24.409C12.9685 37.7798 11.1232 51.1667 16.5667 54.3095C22.0102 57.4523 32.681 49.1608 40.4006 35.79Z" fill="url(#paint3_linear)"/>
<path fill-rule="evenodd" clip-rule="evenodd" d="M21.3032 6.0657C19.5357 5.55574 18.0642 5.65235 16.9245 6.31033C15.7849 6.9683 14.9654 8.19439 14.5233 9.9801C14.0805 11.7685 14.0347 14.0564 14.4002 16.7076C15.1305 22.0062 17.4826 28.6077 21.3079 35.2333C25.1332 41.8589 29.6742 47.1966 33.8977 50.4784C36.0111 52.1205 38.0153 53.2248 39.7855 53.7355C41.553 54.2454 43.0246 54.1488 44.1642 53.4909C45.3039 52.8329 46.1233 51.6068 46.5654 49.8211C47.0082 48.0327 47.054 45.7448 46.6885 43.0936C45.9582 37.795 43.6061 31.1935 39.7808 24.5679C35.9556 17.9423 31.4145 12.6046 27.191 9.32282C25.0777 7.68072 23.0734 6.57644 21.3032 6.0657ZM40.4006 24.2101C32.681 10.8392 22.0101 2.54777 16.5667 5.69055C11.1232 8.83334 12.9684 22.2203 20.6881 35.5911C28.4078 48.9619 39.0786 57.2534 44.522 54.1106C49.9655 50.9678 48.1203 37.5809 40.4006 24.2101Z" fill="url(#paint4_linear)"/>
<path fill-rule="evenodd" clip-rule="evenodd" d="M55.9024 33.9463C57.2278 32.6706 57.8799 31.3479 57.8799 30.0319C57.8799 28.716 57.2278 27.3933 55.9024 26.1175C54.575 24.8399 52.6165 23.6563 50.1378 22.6471C45.1839 20.6303 38.2908 19.3665 30.6402 19.3665C22.9896 19.3665 16.0966 20.6303 11.1427 22.6471C8.6639 23.6563 6.70544 24.8399 5.37804 26.1175C4.05263 27.3933 3.40053 28.716 3.40053 30.0319C3.40053 31.3479 4.05263 32.6706 5.37804 33.9463C6.70544 35.224 8.6639 36.4075 11.1427 37.4167C16.0966 39.4335 22.9896 40.6973 30.6402 40.6973C38.2908 40.6973 45.1839 39.4335 50.1378 37.4167C52.6165 36.4075 54.575 35.224 55.9024 33.9463ZM30.6402 41.4129C46.0795 41.4129 58.5956 36.3175 58.5956 30.0319C58.5956 23.7463 46.0795 18.6509 30.6402 18.6509C15.2009 18.6509 2.68488 23.7463 2.68488 30.0319C2.68488 36.3175 15.2009 41.4129 30.6402 41.4129Z" fill="url(#paint5_linear)"/>
<path fill-rule="evenodd" clip-rule="evenodd" d="M46.5654 10.179C46.1233 8.39329 45.3039 7.16721 44.1642 6.50924C43.0246 5.85126 41.553 5.75464 39.7855 6.26461C38.0153 6.77534 36.0111 7.87962 33.8978 9.52172C29.6742 12.8035 25.1332 18.1412 21.3079 24.7668C17.4826 31.3924 15.1305 37.9939 14.4002 43.2925C14.0348 45.9437 14.0805 48.2316 14.5233 50.02C14.9654 51.8057 15.7849 53.0318 16.9245 53.6898C18.0642 54.3477 19.5357 54.4444 21.3033 53.9344C23.0734 53.4237 25.0777 52.3194 27.191 50.6773C31.4146 47.3955 35.9556 42.0578 39.7809 35.4322C43.6062 28.8066 45.9582 22.2051 46.6886 16.9065C47.054 14.2553 47.0082 11.9674 46.5654 10.179ZM40.4006 35.79C48.1203 22.4192 49.9655 9.03224 44.5221 5.88946C39.0786 2.74667 28.4078 11.0381 20.6881 24.409C12.9685 37.7798 11.1232 51.1667 16.5667 54.3095C22.0102 57.4523 32.681 49.1608 40.4006 35.79Z" fill="url(#paint6_linear)"/>
<path fill-rule="evenodd" clip-rule="evenodd" d="M21.3032 6.0657C19.5357 5.55574 18.0642 5.65235 16.9245 6.31033C15.7849 6.9683 14.9654 8.19439 14.5233 9.9801C14.0805 11.7685 14.0347 14.0564 14.4002 16.7076C15.1305 22.0062 17.4826 28.6077 21.3079 35.2333C25.1332 41.8589 29.6742 47.1966 33.8977 50.4784C36.0111 52.1205 38.0153 53.2248 39.7855 53.7355C41.553 54.2454 43.0246 54.1488 44.1642 53.4909C45.3039 52.8329 46.1233 51.6068 46.5654 49.8211C47.0082 48.0327 47.054 45.7448 46.6885 43.0936C45.9582 37.795 43.6061 31.1935 39.7808 24.5679C35.9556 17.9423 31.4145 12.6046 27.191 9.32282C25.0777 7.68072 23.0734 6.57644 21.3032 6.0657ZM40.4006 24.2101C32.681 10.8392 22.0101 2.54777 16.5667 5.69055C11.1232 8.83334 12.9684 22.2203 20.6881 35.5911C28.4078 48.9619 39.0786 57.2534 44.522 54.1106C49.9655 50.9678 48.1203 37.5809 40.4006 24.2101Z" fill="url(#paint7_linear)"/>
<path fill-rule="evenodd" clip-rule="evenodd" d="M55.9024 33.9463C57.2278 32.6706 57.8799 31.3479 57.8799 30.0319C57.8799 28.716 57.2278 27.3933 55.9024 26.1175C54.575 24.8399 52.6165 23.6563 50.1378 22.6471C45.1839 20.6303 38.2908 19.3665 30.6402 19.3665C22.9896 19.3665 16.0966 20.6303 11.1427 22.6471C8.6639 23.6563 6.70544 24.8399 5.37804 26.1175C4.05263 27.3933 3.40053 28.716 3.40053 30.0319C3.40053 31.3479 4.05263 32.6706 5.37804 33.9463C6.70544 35.224 8.6639 36.4075 11.1427 37.4167C16.0966 39.4335 22.9896 40.6973 30.6402 40.6973C38.2908 40.6973 45.1839 39.4335 50.1378 37.4167C52.6165 36.4075 54.575 35.224 55.9024 33.9463ZM30.6402 41.4129C46.0795 41.4129 58.5956 36.3175 58.5956 30.0319C58.5956 23.7463 46.0795 18.6509 30.6402 18.6509C15.2009 18.6509 2.68488 23.7463 2.68488 30.0319C2.68488 36.3175 15.2009 41.4129 30.6402 41.4129Z" fill="url(#paint8_linear)"/>
<path fill-rule="evenodd" clip-rule="evenodd" d="M46.5654 10.179C46.1233 8.39329 45.3039 7.16721 44.1642 6.50924C43.0246 5.85126 41.553 5.75464 39.7855 6.26461C38.0153 6.77533 36.0111 7.87962 33.8978 9.52172C29.6742 12.8035 25.1332 18.1412 21.3079 24.7668C17.4826 31.3924 15.1305 37.9939 14.4002 43.2925C14.0348 45.9437 14.0805 48.2316 14.5233 50.02C14.9654 51.8057 15.7849 53.0318 16.9245 53.6898C18.0642 54.3477 19.5357 54.4444 21.3033 53.9344C23.0734 53.4237 25.0777 52.3194 27.191 50.6773C31.4146 47.3955 35.9556 42.0578 39.7809 35.4322C43.6062 28.8066 45.9582 22.2051 46.6886 16.9065C47.054 14.2553 47.0082 11.9674 46.5654 10.179ZM40.4006 35.79C48.1203 22.4192 49.9655 9.03224 44.5221 5.88946C39.0786 2.74667 28.4078 11.0381 20.6881 24.409C12.9685 37.7798 11.1232 51.1667 16.5667 54.3095C22.0102 57.4523 32.681 49.1608 40.4006 35.79Z" fill="url(#paint9_linear)"/>
<path fill-rule="evenodd" clip-rule="evenodd" d="M21.3032 6.0657C19.5357 5.55574 18.0642 5.65235 16.9245 6.31033C15.7849 6.9683 14.9654 8.19439 14.5233 9.9801C14.0805 11.7685 14.0347 14.0564 14.4002 16.7076C15.1305 22.0062 17.4826 28.6077 21.3079 35.2333C25.1332 41.8589 29.6742 47.1966 33.8977 50.4784C36.0111 52.1205 38.0153 53.2248 39.7855 53.7355C41.553 54.2454 43.0246 54.1488 44.1642 53.4909C45.3039 52.8329 46.1233 51.6068 46.5654 49.8211C47.0082 48.0327 47.054 45.7448 46.6885 43.0936C45.9582 37.795 43.6061 31.1935 39.7808 24.5679C35.9556 17.9423 31.4145 12.6046 27.191 9.32282C25.0777 7.68072 23.0734 6.57644 21.3032 6.0657ZM40.4006 24.2101C32.681 10.8392 22.0101 2.54777 16.5667 5.69055C11.1232 8.83334 12.9684 22.2203 20.6881 35.5911C28.4078 48.9619 39.0786 57.2534 44.522 54.1106C49.9655 50.9678 48.1203 37.5809 40.4006 24.2101Z" fill="url(#paint10_linear)"/>
<path fill-rule="evenodd" clip-rule="evenodd" d="M55.9024 33.9463C57.2278 32.6706 57.8799 31.3479 57.8799 30.0319C57.8799 28.716 57.2278 27.3933 55.9024 26.1175C54.575 24.8399 52.6165 23.6563 50.1378 22.6471C45.1839 20.6303 38.2908 19.3665 30.6402 19.3665C22.9896 19.3665 16.0966 20.6303 11.1427 22.6471C8.6639 23.6563 6.70544 24.8399 5.37804 26.1175C4.05263 27.3933 3.40053 28.716 3.40053 30.0319C3.40053 31.3479 4.05263 32.6706 5.37804 33.9463C6.70544 35.224 8.6639 36.4075 11.1427 37.4167C16.0966 39.4335 22.9896 40.6973 30.6402 40.6973C38.2908 40.6973 45.1839 39.4335 50.1378 37.4167C52.6165 36.4075 54.575 35.224 55.9024 33.9463ZM30.6402 41.4129C46.0795 41.4129 58.5956 36.3175 58.5956 30.0319C58.5956 23.7463 46.0795 18.6509 30.6402 18.6509C15.2009 18.6509 2.68488 23.7463 2.68488 30.0319C2.68488 36.3175 15.2009 41.4129 30.6402 41.4129Z" fill="url(#paint11_linear)"/>
<path d="M15.7059 34.02C28.1273 6.98687 39.4539 5.68016 42.0786 4.2177C43.49 4.12973 45.1214 7.57045 43.7539 8.36415C42.3865 9.15786 27.6866 11.9868 15.7059 34.02Z" fill="url(#paint12_linear)"/>
<g filter="url(#filter0_f)">
<circle r="3" transform="matrix(-0.999101 -0.0423829 -0.0423829 0.999101 41.807 6.90592)" fill="#FFC328"/>
</g>
<circle r="3" transform="matrix(-0.999101 -0.0423829 -0.0423829 0.999101 41.8071 6.9058)" fill="#FFC328"/>
<circle r="2.5" transform="matrix(-0.999101 -0.0423829 -0.0423829 0.999101 42.1428 6.55708)" fill="#A9470F"/>
<path d="M35.7009 16.0403C52.0568 40.8912 47.1681 51.1916 47.019 54.1925C46.3463 55.4365 42.5637 54.9987 42.6144 53.4183C42.6652 51.838 48.0486 37.87 35.7009 16.0403Z" fill="url(#paint13_linear)"/>
<g filter="url(#filter1_f)">
<circle r="3" transform="matrix(0.56496 -0.825118 -0.825118 -0.56496 44.8824 52.5389)" fill="#FFC328"/>
</g>
<circle r="3" transform="matrix(0.56496 -0.825118 -0.825118 -0.56496 44.8824 52.5389)" fill="#FFC328"/>
<circle r="2.5" transform="matrix(0.56496 -0.825118 -0.825118 -0.56496 45.0005 53.0084)" fill="#A9470F"/>
<path d="M41.2955 41.34C11.6298 43.5811 4.99594 34.3079 2.44441 32.7213C1.68321 31.5294 3.9017 28.4345 5.25884 29.2458C6.61598 30.0571 16.2165 41.5426 41.2955 41.34Z" fill="url(#paint14_linear)"/>
<g filter="url(#filter2_f)">
<circle r="3" transform="matrix(0.447278 0.894395 0.894395 -0.447278 4.92724 31.6556)" fill="#FFC328"/>
</g>
<circle r="3" transform="matrix(0.447278 0.894395 0.894395 -0.447278 4.9273 31.6556)" fill="#FFC328"/>
<circle r="2.5" transform="matrix(0.447278 0.894395 0.894395 -0.447278 4.45947 31.531)" fill="#A9470F"/>
<path d="M39.7853 19.7754C32.299 19.0201 27.2931 19.4865 20.1048 20.2227C24.1489 23.4325 28.3533 26.6918 31.966 30.472C35.5016 30.0236 38.5624 30.4065 41.5745 30.3984L39.7853 19.7754Z" fill="url(#paint15_linear)"/>
<path d="M19.6575 30.9575L20.7757 39.7559C22.9261 40.2467 24.964 40.2939 28.5032 40.3759L28.5034 40.3759C29.1455 40.3908 29.8369 40.4068 30.5874 40.4268C34.4147 40.4842 37.4371 40.4268 40.4563 39.9795C38.1766 37.3922 35.6906 34.098 31.966 30.472C27.3141 30.1277 23.5953 30.7027 19.6575 30.9575Z" fill="url(#paint16_linear)"/>
<path d="M31.9578 48.7371L30.5874 40.4268C29.8369 40.4068 29.1455 40.3908 28.5034 40.3759L28.5032 40.3759C24.964 40.2939 22.9261 40.2467 20.7757 39.7559C25.3909 44.3812 27.9609 46.0859 31.7236 48.5817L31.7238 48.5818L31.9578 48.7371Z" fill="url(#paint17_linear)"/>
<path fill-rule="evenodd" clip-rule="evenodd" d="M22.3883 20.8912C25.7715 23.5758 29.2338 26.3742 32.3022 29.5317C34.6312 29.2782 36.8103 29.3601 38.8305 29.4361C39.4048 29.4577 39.9662 29.4788 40.5146 29.4916L39.017 20.5997C32.7584 20.0189 28.2285 20.3152 22.3883 20.8912ZM29.7111 29.4764C26.8054 26.6737 23.6016 24.1352 20.4219 21.6157C20.1306 21.3848 19.8394 21.1541 19.5486 20.9233L17.8267 19.5567L20.0136 19.3327C27.2113 18.5957 32.2932 18.1204 39.8751 18.8853L40.5541 18.9538L42.6318 31.2901L41.5769 31.293C40.5599 31.2957 39.5726 31.2579 38.5854 31.2201C37.0746 31.1623 35.5641 31.1045 33.9479 31.192C35.9981 33.3062 37.6672 35.2972 39.1351 37.0481C39.8389 37.8876 40.4964 38.6719 41.1275 39.3881L42.2157 40.6232L40.5874 40.8644C37.7865 41.2794 34.9954 41.3646 31.6437 41.3343L33.1746 50.6178L31.4633 49.4825L31.2355 49.3314L31.2322 49.3292L31.2293 49.3273L31.2291 49.3272C27.4437 46.8163 24.8181 45.0736 20.1424 40.3878L19.9268 40.1716L18.6501 30.1263L19.5997 30.0648C20.5615 30.0025 21.523 29.9193 22.4981 29.8349C24.7701 29.6382 27.1157 29.4351 29.7111 29.4764ZM30.7403 46.8521L29.8251 41.3021C29.3553 41.2904 28.9095 41.2801 28.4847 41.2703L28.4827 41.2702L28.4825 41.2702L28.4017 41.2683C26.371 41.2213 24.8023 41.185 23.4012 41.0602C26.2285 43.7133 28.29 45.2065 30.7403 46.8521ZM21.5828 39.0109L20.6642 31.7832C21.3679 31.7298 22.0616 31.6698 22.753 31.61C25.5552 31.3677 28.321 31.1286 31.5756 31.3415C34.0822 33.8066 35.995 36.0886 37.704 38.1275C38.0393 38.5275 38.3668 38.9182 38.6893 39.299C36.2602 39.5484 33.7166 39.579 30.6061 39.5324C29.8559 39.5124 29.1646 39.4964 28.5242 39.4816L28.5239 39.4816L28.5222 39.4815L28.5217 39.4815C25.3131 39.4071 23.4207 39.3603 21.5828 39.0109Z" fill="black"/>
<defs>
<filter id="filter0_f" x="35.8069" y="0.905884" width="12.0001" height="12.0001" filterUnits="userSpaceOnUse" color-interpolation-filters="sRGB">
<feFlood flood-opacity="0" result="BackgroundImageFix"/>
<feBlend mode="normal" in="SourceGraphic" in2="BackgroundImageFix" result="shape"/>
<feGaussianBlur stdDeviation="1.5" result="effect1_foregroundBlur"/>
</filter>
<filter id="filter1_f" x="38.8821" y="46.5386" width="12.0006" height="12.0006" filterUnits="userSpaceOnUse" color-interpolation-filters="sRGB">
<feFlood flood-opacity="0" result="BackgroundImageFix"/>
<feBlend mode="normal" in="SourceGraphic" in2="BackgroundImageFix" result="shape"/>
<feGaussianBlur stdDeviation="1.5" result="effect1_foregroundBlur"/>
</filter>
<filter id="filter2_f" x="-1.07343" y="25.6549" width="12.0013" height="12.0013" filterUnits="userSpaceOnUse" color-interpolation-filters="sRGB">
<feFlood flood-opacity="0" result="BackgroundImageFix"/>
<feBlend mode="normal" in="SourceGraphic" in2="BackgroundImageFix" result="shape"/>
<feGaussianBlur stdDeviation="1.5" result="effect1_foregroundBlur"/>
</filter>
<linearGradient id="paint0_linear" x1="14.6849" y1="43.5001" x2="47.1849" y2="8.00007" gradientUnits="userSpaceOnUse">
<stop stop-color="#FFDC82"/>
<stop offset="1" stop-color="#FFDC82" stop-opacity="0"/>
</linearGradient>
<linearGradient id="paint1_linear" x1="35.1848" y1="16" x2="39.6848" y2="57" gradientUnits="userSpaceOnUse">
<stop stop-color="#FFDC82"/>
<stop offset="1" stop-color="#FFDC82" stop-opacity="0"/>
</linearGradient>
<linearGradient id="paint2_linear" x1="41.6849" y1="40.0001" x2="1.18488" y2="27.0001" gradientUnits="userSpaceOnUse">
<stop stop-color="#FFDC82"/>
<stop offset="1" stop-color="#FFDC82" stop-opacity="0"/>
</linearGradient>
<linearGradient id="paint3_linear" x1="14.6849" y1="43.5001" x2="47.1849" y2="8.00007" gradientUnits="userSpaceOnUse">
<stop stop-color="#FFDC82"/>
<stop offset="1" stop-color="#FFDC82" stop-opacity="0"/>
</linearGradient>
<linearGradient id="paint4_linear" x1="35.1848" y1="16" x2="39.6848" y2="57" gradientUnits="userSpaceOnUse">
<stop stop-color="#FFDC82"/>
<stop offset="1" stop-color="#FFDC82" stop-opacity="0"/>
</linearGradient>
<linearGradient id="paint5_linear" x1="41.6849" y1="40.0001" x2="1.18488" y2="27.0001" gradientUnits="userSpaceOnUse">
<stop stop-color="#FFDC82"/>
<stop offset="1" stop-color="#FFDC82" stop-opacity="0"/>
</linearGradient>
<linearGradient id="paint6_linear" x1="14.6849" y1="43.5001" x2="47.1849" y2="8.00007" gradientUnits="userSpaceOnUse">
<stop stop-color="#FFDC82"/>
<stop offset="1" stop-color="#FFDC82" stop-opacity="0"/>
</linearGradient>
<linearGradient id="paint7_linear" x1="35.1848" y1="16" x2="39.6848" y2="57" gradientUnits="userSpaceOnUse">
<stop stop-color="#FFDC82"/>
<stop offset="1" stop-color="#FFDC82" stop-opacity="0"/>
</linearGradient>
<linearGradient id="paint8_linear" x1="41.6849" y1="40.0001" x2="1.18488" y2="27.0001" gradientUnits="userSpaceOnUse">
<stop stop-color="#FFDC82"/>
<stop offset="1" stop-color="#FFDC82" stop-opacity="0"/>
</linearGradient>
<linearGradient id="paint9_linear" x1="20" y1="27.0001" x2="47.5" y2="17.0001" gradientUnits="userSpaceOnUse">
<stop stop-color="#EB8720"/>
<stop offset="0.497712" stop-color="#F6B656" stop-opacity="0.87"/>
<stop offset="1" stop-color="#FFDC82" stop-opacity="0.77"/>
</linearGradient>
<linearGradient id="paint10_linear" x1="30.7217" y1="11.2714" x2="18.2182" y2="30.6147" gradientUnits="userSpaceOnUse">
<stop stop-color="#EB8720"/>
<stop offset="0.497712" stop-color="#F6B656" stop-opacity="0.87"/>
<stop offset="1" stop-color="#FFDC82" stop-opacity="0.77"/>
</linearGradient>
<linearGradient id="paint11_linear" x1="46.6849" y1="39.5001" x2="36.1849" y2="19.0001" gradientUnits="userSpaceOnUse">
<stop stop-color="#EB8720"/>
<stop offset="0.497712" stop-color="#F6B656" stop-opacity="0.87"/>
<stop offset="1" stop-color="#FFDC82" stop-opacity="0.77"/>
</linearGradient>
<linearGradient id="paint12_linear" x1="41.5487" y1="7.08489" x2="13.9922" y2="36.3787" gradientUnits="userSpaceOnUse">
<stop stop-color="#FFBA08"/>
<stop offset="0.837785" stop-color="#F5BD48" stop-opacity="0.4375"/>
<stop offset="1" stop-color="#FFFA80" stop-opacity="0"/>
</linearGradient>
<linearGradient id="paint13_linear" x1="44.8673" y1="52.225" x2="34.6074" y2="13.3377" gradientUnits="userSpaceOnUse">
<stop stop-color="#FFBA08"/>
<stop offset="0.837785" stop-color="#F5BD48" stop-opacity="0.4375"/>
<stop offset="1" stop-color="#FFFA80" stop-opacity="0"/>
</linearGradient>
<linearGradient id="paint14_linear" x1="5.20901" y1="31.7947" x2="44.1893" y2="41.6955" gradientUnits="userSpaceOnUse">
<stop stop-color="#FFBA08"/>
<stop offset="0.837785" stop-color="#F5BD48" stop-opacity="0.4375"/>
<stop offset="1" stop-color="#FFFA80" stop-opacity="0"/>
</linearGradient>
<linearGradient id="paint15_linear" x1="30.616" y1="20.5579" x2="30.616" y2="48.7371" gradientUnits="userSpaceOnUse">
<stop stop-color="white"/>
<stop offset="0.325967" stop-color="white"/>
<stop offset="0.392265" stop-color="#1FD9FD"/>
<stop offset="0.651934" stop-color="#0196FF"/>
<stop offset="1" stop-color="#014FFF"/>
</linearGradient>
<linearGradient id="paint16_linear" x1="30.616" y1="20.5579" x2="30.616" y2="48.7371" gradientUnits="userSpaceOnUse">
<stop stop-color="white"/>
<stop offset="0.325967" stop-color="white"/>
<stop offset="0.392265" stop-color="#1FD9FD"/>
<stop offset="0.651934" stop-color="#0196FF"/>
<stop offset="1" stop-color="#014FFF"/>
</linearGradient>
<linearGradient id="paint17_linear" x1="30.616" y1="20.5579" x2="30.616" y2="48.7371" gradientUnits="userSpaceOnUse">
<stop stop-color="white"/>
<stop offset="0.325967" stop-color="white"/>
<stop offset="0.392265" stop-color="#1FD9FD"/>
<stop offset="0.651934" stop-color="#0196FF"/>
<stop offset="1" stop-color="#014FFF"/>
</linearGradient>
</defs>
</svg>
