<svg width="1954" height="236" viewBox="0 0 1954 236" fill="none" xmlns="http://www.w3.org/2000/svg">
<path opacity="0.1" fill-rule="evenodd" clip-rule="evenodd" d="M0 169.445C1.31271 144.027 11.3592 120.785 31.2141 104.642C51.3105 88.3034 73.2621 94.5779 98.8567 101.894C130.301 110.881 167.244 121.441 213 93.5701C278 47.65 372 22.1171 424.584 9.78886C560.215 -22.0096 738.822 29.6991 907.367 78.4946C1048.77 119.431 1183.08 158.317 1279 144.126C1545.66 104.676 1757.83 174.57 1928.8 236H14.9457C6.01674 218.126 0.912316 199.268 0 181.11V169.445Z" fill="url(#paint0_linear)"/>
<path fill-rule="evenodd" clip-rule="evenodd" d="M25 174.014C26.3131 154.924 36.3595 137.469 56.214 125.346C76.3104 113.075 98.262 117.788 123.857 123.282C155.301 130.032 192.244 137.962 238 117.031C303 82.5434 397 63.3674 449.584 54.1086C585.215 30.227 763.822 69.0617 932.367 105.709C1073.77 136.453 1208.08 165.657 1304 155C1570.66 125.371 1782.83 177.864 1953.8 224H39.9457C31.017 210.576 25.9126 196.414 25 182.777V174.014Z" fill="url(#paint1_linear)"/>
<defs>
<linearGradient id="paint0_linear" x1="771.334" y1="207.546" x2="798.743" y2="40.4356" gradientUnits="userSpaceOnUse">
<stop stop-color="#030A32"/>
<stop offset="1" stop-color="#50245B"/>
</linearGradient>
<linearGradient id="paint1_linear" x1="796.334" y1="202.63" x2="811.972" y2="75.6753" gradientUnits="userSpaceOnUse">
<stop stop-color="#030A32"/>
<stop offset="1" stop-color="#50245B"/>
</linearGradient>
</defs>
</svg>
