<svg width="24" height="24" viewBox="0 0 24 24" fill="none" xmlns="http://www.w3.org/2000/svg">
<path d="M13.3953 14.9376C14.0066 15.9357 14.8019 16.6694 16.2085 16.6694C17.3901 16.6694 18.1449 16.0788 18.1449 15.2628C18.1449 14.2849 17.3694 13.9386 16.0688 13.3697L15.3558 13.0638C13.298 12.1871 11.9309 11.0888 11.9309 8.76695C11.9309 6.62817 13.5605 5 16.1073 5C17.9204 5 19.2239 5.63104 20.1633 7.28329L17.9426 8.70914C17.4537 7.83244 16.9262 7.48705 16.1073 7.48705C15.272 7.48705 14.7426 8.01693 14.7426 8.70914C14.7426 9.56466 15.2725 9.911 16.496 10.4409L17.209 10.7463C19.632 11.7853 21 12.8446 21 15.2262C21 17.7937 18.9831 19.2002 16.2745 19.2002C13.626 19.2002 11.915 17.9382 11.0778 16.284L13.3953 14.9376ZM3.32135 15.1847C3.76933 15.9795 4.17686 16.6515 5.15665 16.6515C6.09357 16.6515 6.68463 16.2849 6.68463 14.8596V5.16282H9.53633V14.8981C9.53633 17.851 7.80508 19.1949 5.27804 19.1949C2.99475 19.1949 1.67246 18.0133 1 16.5901L3.32135 15.1847Z" fill="#EFD60B"/>
</svg>
