<svg width="239" height="52" viewBox="0 0 239 52" fill="none" xmlns="http://www.w3.org/2000/svg">
<path d="M20.7321 10L22.1405 14.269L26.25 15.625L22.1406 16.9807L20.7321 21.25L19.3497 17.0598L15 15.625L19.3498 14.1899L20.7321 10Z" fill="#B01785"/>
<path d="M31.7321 16L33.1405 20.269L37.25 21.625L33.1406 22.9807L31.7321 27.25L30.3497 23.0598L26 21.625L30.3498 20.1899L31.7321 16Z" fill="#D0D0D0"/>
<path d="M12.7321 25L14.1405 29.269L18.25 30.625L14.1406 31.9807L12.7321 36.25L11.3497 32.0598L7 30.625L11.3498 29.1899L12.7321 25Z" fill="#D0D0D0"/>
<path opacity="0.2" d="M-1.52588e-05 30.8609C-1.52588e-05 45.907 63.3854 52 129.383 52C195.381 52 239 45.907 239 30.8609C239 15.8147 226.829 0 160.831 0C94.8328 0 -1.52588e-05 15.8147 -1.52588e-05 30.8609Z" fill="url(#paint0_linear)"/>
<defs>
<linearGradient id="paint0_linear" x1="121.599" y1="13.7688" x2="177.226" y2="75.2477" gradientUnits="userSpaceOnUse">
<stop stop-color="#C6CFFF"/>
<stop offset="1" stop-color="#FFDCFB"/>
</linearGradient>
</defs>
</svg>
