<svg width="43" height="43" viewBox="0 0 43 43" fill="none" xmlns="http://www.w3.org/2000/svg">
<path fill-rule="evenodd" clip-rule="evenodd" d="M31.9645 33.7183L36.3917 29.291L33.9796 26.8789C33.1407 26.1636 32.3675 25.9156 31.6542 25.9133L31.2418 25.912L22.3461 17.0163C16.761 11.5786 12.8829 8.57619 10.1451 7.05858C7.80363 5.76066 6.43666 5.62357 5.59402 5.82103L5.56534 5.90532L5.48139 5.93383C5.28401 6.7765 5.42121 8.14343 6.719 10.4846C8.23661 13.2224 11.2391 17.1006 16.6767 22.6857L25.5725 31.5814L25.5738 31.9937C25.576 32.707 25.8241 33.4803 26.5393 34.3191L28.9515 36.7313L31.9645 33.7183ZM25.8052 34.9993C24.9353 33.9913 24.5769 32.9841 24.5738 31.9969L15.9649 23.388C5.0444 12.1724 3.65558 7.56755 4.69022 5.14783C4.71908 5.13709 4.7481 5.12677 4.77728 5.11686C4.7872 5.08769 4.79753 5.05866 4.80828 5.0298C7.22799 3.99516 11.8328 5.38398 23.0485 16.3045L31.6573 24.9133C32.6446 24.9164 33.6518 25.2749 34.6597 26.1448L37.8059 29.291L33.3787 33.7183L28.9515 38.1455L25.8052 34.9993Z" fill="white"/>
<path fill-rule="evenodd" clip-rule="evenodd" d="M35.1188 32.2117L31.8722 35.4584C31.6922 35.6384 31.6922 35.9302 31.8722 36.1102C32.0522 36.2902 32.344 36.2902 32.524 36.1102L35.7707 32.8636C35.9507 32.6836 35.9507 32.3917 35.7707 32.2117C35.5907 32.0317 35.2988 32.0317 35.1188 32.2117ZM31.1651 36.8173C31.7356 37.3878 32.6606 37.3878 33.2311 36.8173L36.4778 33.5707C37.0483 33.0002 37.0483 32.0752 36.4778 31.5046C35.9073 30.9341 34.9823 30.9341 34.4117 31.5046L31.1651 34.7513C30.5946 35.3218 30.5946 36.2468 31.1651 36.8173Z" fill="white"/>
<path fill-rule="evenodd" clip-rule="evenodd" d="M15.8424 10.9331C13.5483 12.8458 12.3968 13.9802 10.5964 16.1786L9.8227 15.545C11.668 13.2918 12.8655 12.1131 15.202 10.1651L15.8424 10.9331Z" fill="white"/>
<path fill-rule="evenodd" clip-rule="evenodd" d="M11.1147 5.30942C14.0874 6.95725 18.1181 10.1082 23.7461 15.5881L23.7556 15.5974L24.1864 16.0283C24.9974 16.5899 25.5888 16.9732 25.9061 17.1318C25.9823 17.1699 26.2332 17.2415 26.7442 17.2878C27.2199 17.3308 27.8167 17.3443 28.5005 17.3354C29.8678 17.3178 31.4933 17.213 33.0323 17.1135L33.046 17.1126C34.1493 17.0412 35.2123 16.9725 36.0701 16.9454C36.5007 16.9318 36.8963 16.9281 37.2293 16.9415C37.5317 16.9536 37.8852 16.9822 38.1714 17.0776C39.3518 17.471 40.0752 18.4428 40.6026 19.1514C40.6236 19.1796 40.6442 19.2073 40.6646 19.2346C40.9663 19.6388 41.2234 19.9803 41.5137 20.2706L42.2208 20.9777L41.5137 21.6848C40.241 22.9576 38.6652 25.407 37.4455 27.5165L39.2201 29.2911L37.4293 31.082C38.1375 32.0449 38.056 33.4067 37.1849 34.2779L37.1342 34.3286C37.8424 35.2915 37.7609 36.6533 36.8897 37.5245C36.0125 38.4017 34.6379 38.4782 33.6739 37.7541C32.8086 38.404 31.6126 38.409 30.7423 37.7689L28.9515 39.5598L27.19 37.7983C25.0679 39.0222 22.5819 40.6167 21.296 41.9026L20.5889 42.6097L19.8818 41.9026C19.5915 41.6122 19.25 41.3551 18.8457 41.0534C18.8185 41.0331 18.7907 41.0124 18.7626 40.9915C18.054 40.464 17.0822 39.7406 16.6887 38.5602C16.5934 38.274 16.5648 37.9205 16.5527 37.6181C16.5392 37.2851 16.543 36.8895 16.5566 36.4589C16.5837 35.6012 16.6524 34.5382 16.7237 33.435L16.7246 33.4211C16.8242 31.8821 16.929 30.2566 16.9466 28.8893C16.9554 28.2055 16.942 27.6087 16.8989 27.133C16.8527 26.622 16.7811 26.3711 16.743 26.2949C16.5605 25.93 16.0906 25.2185 15.4139 24.2514L15.2484 24.0858C9.76848 18.4578 6.61759 14.4271 4.96976 11.4543C3.32634 8.48961 3.0745 6.38305 3.77074 4.75475L3.93938 4.36035L3.99866 4.33828L4.02071 4.27904L4.41511 4.1104C6.04341 3.41416 8.14998 3.666 11.1147 5.30942ZM5.48138 5.93391L5.56534 5.9054L5.59401 5.8211C6.43665 5.62364 7.80363 5.76073 10.1451 7.05865C12.8829 8.57626 16.761 11.5787 22.3461 17.0164L22.8989 17.5692L22.9724 17.6202C23.7955 18.1918 24.533 18.6814 25.0117 18.9207C25.4482 19.1389 26.0253 19.2309 26.5639 19.2796C27.1377 19.3316 27.8118 19.3445 28.5263 19.3353C29.9505 19.3169 31.6244 19.2087 33.1449 19.1104L33.1614 19.1093C34.2809 19.0369 35.3121 18.9703 36.1333 18.9444C36.5439 18.9314 36.8852 18.9292 37.1488 18.9399C37.4043 18.9501 37.5152 18.9707 37.5357 18.9745C37.5388 18.975 37.5389 18.9749 37.5389 18.9749C38.068 19.1513 38.446 19.6058 39.0618 20.4309L39.0791 20.454C39.198 20.6134 39.3262 20.7851 39.4646 20.9605C37.9985 22.6698 36.4162 25.2583 35.3273 27.1936L34.9553 27.8547L36.3917 29.2911L34.1098 31.573L35.6003 32.1035C35.6614 32.1252 35.7194 32.1605 35.7706 32.2118C35.9506 32.3918 35.9506 32.6837 35.7706 32.8636L34.3257 34.3086L35.4755 35.4585C35.6555 35.6385 35.6555 35.9303 35.4755 36.1103C35.2955 36.2903 35.0037 36.2903 34.8237 36.1103L33.6739 34.9604L32.524 36.1103C32.344 36.2903 32.0522 36.2903 31.8722 36.1103C31.8209 36.059 31.7856 36.001 31.7639 35.94L31.2334 34.4494L28.9515 36.7314L27.5295 35.3094L26.8687 35.6802C24.9252 36.7709 22.2992 38.3718 20.5716 39.8534C20.3963 39.715 20.2246 39.5869 20.0653 39.468L20.0421 39.4507C19.2169 38.8348 18.7625 38.4568 18.5861 37.9277C18.5861 37.9277 18.5862 37.9276 18.5856 37.9245C18.5819 37.904 18.5613 37.7931 18.551 37.5376C18.5404 37.2741 18.5426 36.9327 18.5556 36.5221C18.5815 35.701 18.6481 34.6697 18.7205 33.5502L18.7215 33.5338C18.8199 32.0132 18.9281 30.3393 18.9465 28.9151C18.9557 28.2006 18.9427 27.5265 18.8908 26.9527C18.8421 26.4142 18.7501 25.837 18.5319 25.4005C18.265 24.8668 17.6795 23.9989 17.0017 23.032L16.9516 22.9606L16.6768 22.6858C11.2391 17.1006 8.2366 13.2225 6.71899 10.4847C5.4212 8.1435 5.284 6.77657 5.48138 5.93391Z" fill="white"/>
<g opacity="0.5">
<path fill-rule="evenodd" clip-rule="evenodd" d="M9.99999 25L5.99999 21L6.70709 20.2928L10.7071 24.2928L9.99999 25Z" fill="white"/>
<path fill-rule="evenodd" clip-rule="evenodd" d="M26 13L22 8.99995L22.7071 8.29285L26.7071 12.2928L26 13Z" fill="white"/>
<path fill-rule="evenodd" clip-rule="evenodd" d="M9.99999 31L5.99999 27L6.70709 26.2928L10.7071 30.2928L9.99999 31Z" fill="white"/>
<path fill-rule="evenodd" clip-rule="evenodd" d="M32 13L28 8.99995L28.7071 8.29285L32.7071 12.2928L32 13Z" fill="white"/>
</g>
</svg>
