<svg width="360" height="300" viewBox="0 0 291 200" fill="none" xmlns="http://www.w3.org/2000/svg">
<circle cx="146" cy="100" r="99.5" stroke="#D3D7FD"/>
<path d="M275.325 169.513C274.363 171.458 272.559 172.973 269.929 174.05C267.296 175.129 263.863 175.755 259.708 175.931C251.398 176.284 240.305 174.835 227.191 171.748C200.972 165.575 166.782 152.879 130.847 135.115C94.9116 117.352 64.0622 97.8985 43.2358 80.8154C32.8193 72.2713 24.9322 64.3378 20.1663 57.5214C17.7833 54.1131 16.196 51.0056 15.4537 48.2581C14.7124 45.5148 14.8206 43.1613 15.7821 41.2162C16.7436 39.2712 18.5477 37.756 21.1774 36.679C23.8111 35.6004 27.2438 34.9744 31.399 34.7979C39.7087 34.4451 50.8014 35.8937 63.9153 38.981C90.1349 45.1537 124.324 57.8503 160.26 75.6138C196.195 93.3773 227.044 112.83 247.871 129.914C258.287 138.458 266.174 146.391 270.94 153.207C273.323 156.616 274.911 159.723 275.653 162.471C276.394 165.214 276.286 167.568 275.325 169.513Z" stroke="#D3D7FD"/>
</svg>
