<svg width="46" height="44" viewBox="0 0 46 44" fill="none" xmlns="http://www.w3.org/2000/svg">
<path fill-rule="evenodd" clip-rule="evenodd" d="M30.5336 31.8771C30.6417 31.9852 31.2336 31.5686 31.8557 30.9466C32.4777 30.3245 32.8943 29.7326 32.7862 29.6245L30.1577 26.996C30.0496 26.8879 29.4577 27.3045 28.8357 27.9266C28.2136 28.5486 27.797 29.1405 27.9051 29.2486L30.5336 31.8771Z" fill="white"/>
<path fill-rule="evenodd" clip-rule="evenodd" d="M22.0576 14.4596L15.6905 20.8268L25.84 30.9763L32.2072 24.6092L22.0576 14.4596ZM14.0471 19.1834C13.1395 20.091 13.1395 21.5626 14.0471 22.4702L24.1966 32.6197C25.1043 33.5274 26.5758 33.5274 27.4834 32.6197L33.8506 26.2526C34.7582 25.345 34.7582 23.8734 33.8506 22.9658L23.701 12.8162C22.7934 11.9086 21.3219 11.9086 20.4142 12.8162L14.0471 19.1834Z" fill="white"/>
<path fill-rule="evenodd" clip-rule="evenodd" d="M11.8878 17.18C13.5502 17.569 15.3662 17.1144 16.6593 15.8213C17.9524 14.5282 18.407 12.7122 18.018 11.0498L11.8878 17.18ZM9.42241 17.6689C9.30886 16.9748 9.53906 16.2419 10.0672 15.7138L16.5518 9.2292C17.0799 8.70106 17.8128 8.47086 18.5069 8.58441C19.2266 8.70215 19.8892 9.19523 20.1421 10.0092C20.9327 12.5542 20.3216 15.4457 18.3027 17.4647C16.2837 19.4836 13.3922 20.0947 10.8472 19.3041C10.0332 19.0512 9.54015 18.3886 9.42241 17.6689Z" fill="white"/>
<path fill-rule="evenodd" clip-rule="evenodd" d="M12.4431 26.5281L4.12476 34.8464L9.01429 39.736L17.3326 31.4176L12.4431 26.5281ZM2.48136 33.203C1.57373 34.1107 1.57373 35.5822 2.48136 36.4898L7.37088 41.3794C8.27851 42.287 9.75006 42.287 10.6577 41.3794L18.976 33.0611C19.8836 32.1534 19.8836 30.6819 18.976 29.7742L14.0865 24.8847C13.1788 23.9771 11.7073 23.9771 10.7997 24.8847L2.48136 33.203Z" fill="white"/>
<path fill-rule="evenodd" clip-rule="evenodd" d="M16.6632 27.4612L5.05803 39.0663L4.23633 38.2446L15.8414 26.6395L16.6632 27.4612Z" fill="white"/>
<path fill-rule="evenodd" clip-rule="evenodd" d="M12.4431 39.0663L4.53053 31.1537L5.35223 30.332L13.2648 38.2446L12.4431 39.0663Z" fill="white"/>
<path fill-rule="evenodd" clip-rule="evenodd" d="M15.2373 35.1101L8.48683 28.3595L9.30853 27.5378L16.0591 34.2884L15.2373 35.1101Z" fill="white"/>
<path fill-rule="evenodd" clip-rule="evenodd" d="M36.8464 3.28679L28.5281 11.6051L33.4176 16.4946L41.7359 8.17632L36.8464 3.28679ZM26.8847 9.9617C25.977 10.8693 25.9771 12.3409 26.8847 13.2485L31.7742 18.138C32.6818 19.0457 34.1534 19.0457 35.061 18.138L43.3793 9.81972C44.2869 8.91209 44.2869 7.44054 43.3793 6.53291L38.4898 1.64339C37.5822 0.73576 36.1106 0.73576 35.203 1.64339L26.8847 9.9617Z" fill="white"/>
<path fill-rule="evenodd" clip-rule="evenodd" d="M41.0665 4.22L29.4614 15.8251L28.6396 15.0034L40.2448 3.3983L41.0665 4.22Z" fill="white"/>
<path fill-rule="evenodd" clip-rule="evenodd" d="M36.8464 15.8251L28.9338 7.91252L29.7555 7.09082L37.6681 15.0034L36.8464 15.8251Z" fill="white"/>
<path fill-rule="evenodd" clip-rule="evenodd" d="M40.1263 12.5608L32.2137 4.64824L33.0354 3.82654L40.948 11.7391L40.1263 12.5608Z" fill="white"/>
<path fill-rule="evenodd" clip-rule="evenodd" d="M21.755 30.2136L29.8895 22.0792L30.7112 22.9009L22.5767 31.0353L21.755 30.2136Z" fill="white"/>
<path opacity="0.5" fill-rule="evenodd" clip-rule="evenodd" d="M4.07159 14.1332C3.42858 14.1332 2.90953 13.5676 2.97925 12.9246C3.54479 7.23053 8.07684 2.70623 13.7632 2.1407C14.4062 2.07872 14.9717 2.59003 14.9717 3.24078C14.9717 3.80632 14.5457 4.27114 13.9801 4.32537C9.32412 4.7902 5.62101 8.4933 5.15618 13.1493C5.10196 13.7071 4.63713 14.1332 4.07159 14.1332ZM7.40285 12.9014C7.29439 13.5521 7.82894 14.1332 8.48744 14.1332C9.03748 14.1332 9.47906 13.7226 9.57203 13.1803C9.96713 10.9181 11.7567 9.1363 14.0189 8.73346C14.5612 8.64049 14.9717 8.19891 14.9717 7.64886C14.9717 6.99036 14.3907 6.45581 13.74 6.55653C10.4862 7.08333 7.9219 9.64761 7.40285 12.9014ZM11.594 12.4443C11.594 13.377 12.3501 14.1332 13.2829 14.1332C14.2156 14.1332 14.9717 13.377 14.9717 12.4443C14.9717 11.5116 14.2156 10.7554 13.2829 10.7554C12.3501 10.7554 11.594 11.5116 11.594 12.4443Z" fill="white"/>
</svg>
