<svg width="44" height="43" viewBox="0 0 44 43" fill="none" xmlns="http://www.w3.org/2000/svg">
<path d="M24.6684 30.157C24.6349 28.1365 26.4122 27.736 26.5436 27.7547C25.6803 26.944 22.4367 25.5566 21.5809 24.7008C21.8061 25.0836 23.351 30.6863 23.2497 31.238C23.1483 31.3168 22.9231 31.1141 22.5065 30.72C22.1732 30.4048 24.5671 32.9983 25.8057 34.3345C25.8582 34.2444 25.8485 33.9269 25.3891 33.3774C24.5333 32.4991 24.6732 30.4441 24.6684 30.157Z" fill="white"/>
<path fill-rule="evenodd" clip-rule="evenodd" d="M16.9544 32.0733L25.9968 40.6821C26.6151 41.2707 28.2556 42.0323 29.5729 40.7149C30.8902 39.3976 30.1287 37.7571 29.5401 37.1388L20.9313 28.0964L20.9139 28.079C20.4198 27.5848 19.8025 27.1706 19.1917 26.9163C18.8893 26.7904 18.4986 26.6659 18.0655 26.6352C17.6688 26.6071 16.92 26.6397 16.2684 27.2014L16.2124 27.2497L16.16 27.3021C15.4411 28.021 15.4776 28.9215 15.5062 29.2313C15.5445 29.6452 15.6674 30.0244 15.788 30.3173C16.0303 30.9065 16.4312 31.5502 16.937 32.0559L16.9544 32.0733ZM19.4713 29.4652C19.4809 29.4745 19.4903 29.4838 19.4997 29.4932L28.0916 38.5179C28.304 38.741 28.3766 39.0829 28.1587 39.3007C27.9409 39.5186 27.599 39.446 27.3759 39.2336L18.3512 30.6417C18.3418 30.6324 18.3325 30.6229 18.3232 30.6133C18.3078 30.5974 18.2926 30.5813 18.2774 30.5648C17.7181 29.9581 17.3153 28.9752 17.5743 28.7163C17.8877 28.446 18.7926 28.8295 19.4224 29.4185C19.4389 29.4339 19.4552 29.4495 19.4713 29.4652Z" fill="white"/>
<path d="M31.282 23.9708C29.2614 23.9372 28.8609 25.7146 28.8797 25.846C28.0689 24.9827 26.6815 21.7391 25.8257 20.8833C26.2086 21.1085 31.8112 22.6534 32.3629 22.552C32.4418 22.4507 32.2391 22.2255 31.845 21.8089C31.5297 21.4756 34.1233 23.8695 35.4594 25.1081C35.3694 25.1606 35.0518 25.1509 34.5023 24.6914C33.6241 23.8357 31.569 23.9756 31.282 23.9708Z" fill="white"/>
<path fill-rule="evenodd" clip-rule="evenodd" d="M33.1983 16.2568L41.8071 25.2992C42.3957 25.9175 43.1573 27.558 41.8399 28.8753C40.5226 30.1927 38.8821 29.4311 38.2638 28.8425L29.2214 20.2337L29.204 20.2164C28.7098 19.7222 28.2956 19.1049 28.0413 18.4941C27.9154 18.1917 27.7909 17.801 27.7602 17.3679C27.7321 16.9713 27.7647 16.2225 28.3264 15.5708L28.3747 15.5148L28.4271 15.4625C29.146 14.7435 30.0465 14.78 30.3563 14.8086C30.7702 14.8469 31.1494 14.9699 31.4423 15.0904C32.0315 15.3327 32.6752 15.7337 33.1809 16.2394L33.1983 16.2568ZM30.5902 18.7738C30.5995 18.7833 30.6088 18.7928 30.6182 18.8022L39.6429 27.394C39.866 27.6064 40.2079 27.679 40.4257 27.4611C40.6436 27.2433 40.571 26.9014 40.3586 26.6783L31.7667 17.6536C31.7574 17.6443 31.7479 17.6349 31.7383 17.6256C31.7224 17.6103 31.7063 17.595 31.6898 17.5798C31.0831 17.0206 30.1002 16.6177 29.8413 16.8767C29.571 17.1902 29.9545 18.0951 30.5435 18.7248C30.5589 18.7413 30.5745 18.7577 30.5902 18.7738Z" fill="white"/>
<path fill-rule="evenodd" clip-rule="evenodd" d="M13 24C19.0751 24 24 19.0751 24 13C24 6.92487 19.0751 2 13 2C6.92487 2 2 6.92487 2 13C2 19.0751 6.92487 24 13 24ZM13 26C20.1797 26 26 20.1797 26 13C26 5.8203 20.1797 0 13 0C5.8203 0 0 5.8203 0 13C0 20.1797 5.8203 26 13 26Z" fill="white"/>
<path fill-rule="evenodd" clip-rule="evenodd" d="M13 17.9091C15.7112 17.9091 17.9091 15.7112 17.9091 13C17.9091 10.2888 15.7112 8.09094 13 8.09094C10.2888 8.09094 8.09094 10.2888 8.09094 13C8.09094 15.7112 10.2888 17.9091 13 17.9091ZM13 18.9091C16.2635 18.9091 18.9091 16.2635 18.9091 13C18.9091 9.73653 16.2635 7.09094 13 7.09094C9.73653 7.09094 7.09094 9.73653 7.09094 13C7.09094 16.2635 9.73653 18.9091 13 18.9091Z" fill="white"/>
<circle cx="13" cy="13" r="2.36364" fill="white"/>
<path fill-rule="evenodd" clip-rule="evenodd" d="M19.6572 24.1684C19.8138 24.4061 19.9886 24.6374 20.1805 24.8597L20.1674 24.8728L20.8745 25.5799C21.1739 25.8793 21.5763 26.1302 21.9567 26.3413C22.3458 26.557 22.7971 26.7763 23.2442 26.9935L23.2443 26.9935L23.2604 27.0014C23.9037 27.3139 24.8127 27.8475 25.6647 28.4405C26.5398 29.0496 27.2488 29.6489 27.5778 30.0791L27.8909 30.4885L28.406 30.4711C29.0937 30.4477 29.875 30.3433 30.4355 29.7866C30.9992 29.2266 31.1051 28.4437 31.125 27.7469L31.1397 27.235L30.7329 26.924C30.3027 26.595 29.7034 25.886 29.0943 25.0109C28.5013 24.1589 27.9677 23.2499 27.6552 22.6066L27.6519 22.5999L27.6519 22.5998C27.5046 22.2966 27.3571 21.9931 27.2125 21.7115C26.944 21.0493 26.5118 20.4111 25.9286 19.8279C25.5282 19.4275 25.0899 19.0865 24.6315 18.8123C24.3315 19.4115 23.9865 19.9843 23.601 20.5263C23.9124 20.712 24.2224 20.9501 24.5144 21.2421C24.9431 21.6709 25.2168 22.0998 25.3706 22.492L25.3895 22.5402L25.4133 22.5862C25.5526 22.8557 25.6975 23.1539 25.8563 23.4806C26.2218 24.2331 26.8114 25.2319 27.4528 26.1535C27.9504 26.8684 28.5247 27.6036 29.0879 28.1412C29.0631 28.291 29.0344 28.3505 29.0248 28.3672C29.0086 28.3765 28.9482 28.4061 28.7932 28.4321C28.2557 27.8696 27.5214 27.296 26.8073 26.799C25.8857 26.1575 24.8869 25.568 24.1344 25.2024C23.6682 24.9759 23.2636 24.7791 22.9269 24.5923C22.8084 24.5266 22.7076 24.467 22.6224 24.4134L22.2394 24.0919C22.1398 24.0082 22.0397 23.9166 21.9398 23.8167C21.6821 23.559 21.4663 23.2873 21.2915 23.0129C20.7785 23.4383 20.2322 23.8249 19.6572 24.1684Z" fill="white"/>
<g opacity="0.5">
<rect x="9" y="36" width="6" height="2" transform="rotate(-90 9 36)" fill="white"/>
<rect x="7" y="32" width="6" height="2" fill="white"/>
</g>
<rect opacity="0.5" x="17" y="38" width="2" height="2" fill="white"/>
<rect opacity="0.5" x="3" y="36" width="2" height="2" fill="white"/>
<rect opacity="0.5" x="33" y="34" width="2" height="2" fill="white"/>
<rect opacity="0.5" x="39" y="15" width="2" height="2" fill="white"/>
<rect opacity="0.5" x="31" y="5" width="2" height="2" fill="white"/>
</svg>
