<svg width="24" height="24" viewBox="0 0 24 24" fill="none" xmlns="http://www.w3.org/2000/svg">
<path d="M23.7793 11.5907C23.7793 10.0154 21.8066 8.52252 18.7821 7.59674C19.48 4.51406 19.1698 2.06149 17.803 1.27628C17.4879 1.09209 17.1195 1.00485 16.7172 1.00485V2.08572C16.9402 2.08572 17.1195 2.12935 17.2698 2.21175C17.929 2.58981 18.215 4.02936 17.992 5.88091C17.9387 6.33653 17.8514 6.81638 17.7448 7.30593C16.7948 7.07327 15.7575 6.89393 14.667 6.7776C14.0126 5.88091 13.3341 5.06662 12.6506 4.35411C14.2307 2.88548 15.7139 2.08088 16.7221 2.08088V1C15.3892 1 13.6443 1.95001 11.88 3.59798C10.1157 1.9597 8.37074 1.01939 7.03782 1.01939V2.10027C8.04114 2.10027 9.52917 2.90002 11.1093 4.35896C10.4307 5.07147 9.75213 5.88091 9.10748 6.7776C8.01206 6.89393 6.97481 7.07327 6.0248 7.31077C5.91332 6.82607 5.83092 6.35592 5.77276 5.90515C5.54495 4.0536 5.82607 2.61405 6.48042 2.23113C6.62583 2.14389 6.81486 2.10511 7.03782 2.10511V1.02423C6.63067 1.02423 6.2623 1.11148 5.9424 1.29567C4.5804 2.08088 4.27504 4.5286 4.97785 7.60159C1.96303 8.53221 0 10.0202 0 11.5907C0 13.1659 1.97272 14.6588 4.99724 15.5846C4.29927 18.6673 4.60948 21.1198 5.97633 21.905C6.29138 22.0892 6.65975 22.1765 7.0669 22.1765C8.39982 22.1765 10.1447 21.2265 11.909 19.5785C13.6733 21.2168 15.4183 22.1571 16.7512 22.1571C17.1583 22.1571 17.5267 22.0698 17.8466 21.8856C19.2086 21.1004 19.514 18.6527 18.8111 15.5797C21.8163 14.654 23.7793 13.1611 23.7793 11.5907ZM17.4685 8.35772C17.2892 8.98298 17.0662 9.62763 16.8142 10.2723C16.6155 9.88452 16.407 9.49676 16.1792 9.109C15.9563 8.72124 15.7188 8.34318 15.4813 7.97481C16.1695 8.07659 16.8336 8.20262 17.4685 8.35772ZM15.2486 13.5198C14.8705 14.1741 14.4828 14.7945 14.0805 15.3713C13.3583 15.4343 12.6264 15.4682 11.8896 15.4682C11.1578 15.4682 10.4259 15.4343 9.70851 15.3762C9.30621 14.7994 8.9136 14.1838 8.53554 13.5343C8.16717 12.8993 7.83272 12.2547 7.52736 11.6052C7.82788 10.9557 8.16717 10.3062 8.53069 9.67125C8.90876 9.01691 9.29651 8.3965 9.69881 7.81971C10.421 7.75669 11.1529 7.72277 11.8896 7.72277C12.6215 7.72277 13.3534 7.75669 14.0708 7.81486C14.4731 8.39165 14.8657 9.00722 15.2438 9.65671C15.6121 10.2917 15.9466 10.9363 16.2519 11.5858C15.9466 12.2353 15.6121 12.8848 15.2486 13.5198ZM16.8142 12.8896C17.0759 13.5391 17.2989 14.1886 17.4831 14.8187C16.8481 14.9739 16.1792 15.1047 15.4861 15.2065C15.7236 14.8333 15.9611 14.4504 16.1841 14.0578C16.407 13.67 16.6155 13.2774 16.8142 12.8896ZM11.8993 18.0614C11.4486 17.5961 10.9978 17.0774 10.5519 16.5103C10.9881 16.5297 11.434 16.5443 11.8848 16.5443C12.3404 16.5443 12.7912 16.5346 13.2323 16.5103C12.796 17.0774 12.3453 17.5961 11.8993 18.0614ZM8.29319 15.2065C7.60492 15.1047 6.94088 14.9787 6.30592 14.8236C6.48526 14.1983 6.70822 13.5537 6.96027 12.909C7.15899 13.2968 7.36741 13.6846 7.59522 14.0723C7.82303 14.4601 8.05568 14.8381 8.29319 15.2065ZM11.8751 5.11994C12.3259 5.58525 12.7766 6.10387 13.2226 6.67097C12.7863 6.65158 12.3404 6.63704 11.8896 6.63704C11.434 6.63704 10.9833 6.64674 10.5422 6.67097C10.9784 6.10387 11.4292 5.58525 11.8751 5.11994ZM8.28834 7.97481C8.05084 8.34803 7.81334 8.73094 7.59037 9.12354C7.36741 9.5113 7.15899 9.89906 6.96027 10.2868C6.69853 9.63732 6.47557 8.98783 6.29138 8.35772C6.92634 8.20746 7.59522 8.07659 8.28834 7.97481ZM3.90182 14.0432C2.18599 13.3113 1.07603 12.3516 1.07603 11.5907C1.07603 10.8297 2.18599 9.86513 3.90182 9.13808C4.31866 8.95875 4.77428 8.7988 5.24444 8.64854C5.52071 9.59855 5.88424 10.5873 6.33501 11.6004C5.88908 12.6085 5.53041 13.5925 5.25898 14.5376C4.77913 14.3874 4.32351 14.2226 3.90182 14.0432ZM6.5095 20.9696C5.85031 20.5915 5.56434 19.152 5.7873 17.3004C5.84062 16.8448 5.92786 16.3649 6.03449 15.8754C6.9845 16.108 8.02176 16.2874 9.11233 16.4037C9.76667 17.3004 10.4452 18.1147 11.1287 18.8272C9.54856 20.2958 8.06538 21.1004 7.05721 21.1004C6.83909 21.0956 6.65491 21.052 6.5095 20.9696ZM18.0065 17.2762C18.2344 19.1277 17.9532 20.5673 17.2989 20.9502C17.1535 21.0374 16.9644 21.0762 16.7415 21.0762C15.7382 21.0762 14.2501 20.2765 12.67 18.8175C13.3486 18.105 14.0272 17.2956 14.6718 16.3989C15.7672 16.2825 16.8045 16.1032 17.7545 15.8657C17.866 16.3552 17.9532 16.8254 18.0065 17.2762ZM19.8726 14.0432C19.4558 14.2226 19.0002 14.3825 18.53 14.5328C18.2537 13.5828 17.8902 12.594 17.4394 11.581C17.8854 10.5728 18.244 9.58885 18.5155 8.64369C18.9953 8.79395 19.4509 8.95875 19.8775 9.13808C21.5933 9.86998 22.7033 10.8297 22.7033 11.5907C22.6984 12.3516 21.5885 13.3162 19.8726 14.0432Z" fill="#61DAFB"/>
<path d="M11.8835 13.8058C13.1068 13.8058 14.0986 12.8141 14.0986 11.5907C14.0986 10.3674 13.1068 9.37563 11.8835 9.37563C10.6601 9.37563 9.66843 10.3674 9.66843 11.5907C9.66843 12.8141 10.6601 13.8058 11.8835 13.8058Z" fill="#61DAFB"/>
</svg>
