<svg width="204" height="68" viewBox="0 0 204 68" fill="none" xmlns="http://www.w3.org/2000/svg">
<g filter="url(#filter0_d)">
<path d="M32.3382 42.3775C32.2831 42.2447 32.2124 42.0321 32.1251 41.7399C32.0653 41.524 31.9942 41.3109 31.9121 41.1022C31.6825 40.622 31.3869 40.1761 31.0344 39.7775C30.7914 39.4762 30.5276 39.192 30.2453 38.9268C29.9673 38.6701 29.6343 38.4799 29.2713 38.3722L28.9482 38.3034C28.8381 38.2792 28.7333 38.2346 28.6389 38.1724C28.5373 38.0923 28.4495 37.996 28.3793 37.8873C28.2555 37.6951 28.1824 37.5851 28.1597 37.5576C28.0297 37.3777 27.8508 37.2392 27.6439 37.159C27.4323 37.0769 27.2027 37.0532 26.9792 37.0902C26.7823 37.1296 26.5944 37.2036 26.4241 37.3085C26.3416 37.354 26.1698 37.4641 25.9084 37.6382C25.3333 38.0192 24.7075 38.3172 24.0495 38.5231C23.8293 38.5966 23.4929 38.6929 23.0408 38.812C22.7044 38.9026 22.378 39.0269 22.0663 39.183C21.6079 39.4212 21.0927 39.8553 20.52 40.4854C20.3113 40.6946 20.1167 40.9176 19.9374 41.152C19.7562 41.3864 19.6086 41.645 19.4995 41.9201C19.2964 42.5407 19.2869 43.2083 19.472 43.8346C19.5464 44.1491 19.6423 44.4585 19.7585 44.7607L20.1025 45.6659C20.2306 46.018 20.3317 46.2737 20.4047 46.4341C20.5143 46.6846 20.6624 46.9166 20.8431 47.1216C21.0101 47.2881 21.199 47.4309 21.4049 47.5457C21.5287 47.6145 21.7413 47.7198 22.0425 47.8622C22.5545 48.0913 22.9976 48.2901 23.3724 48.4581C23.873 48.7034 24.3897 48.914 24.9187 49.0891C25.4406 49.258 25.9919 49.3164 26.5375 49.2609C26.7501 49.2367 26.9607 49.1978 27.168 49.1441C27.4466 49.0659 27.6544 49.0085 27.792 48.9719C28.692 48.7522 29.3624 48.5805 29.8022 48.4567C30.4641 48.2849 31.0932 48.0055 31.6649 47.6302C32.1726 47.3175 32.5706 46.8554 32.8041 46.3069C32.9483 45.8505 33.0157 45.3732 33.0033 44.8945C33.0793 44.2098 32.9374 43.5181 32.5977 42.9184C32.4648 42.6574 32.3785 42.4771 32.3382 42.3775Z" fill="white"/>
<path d="M20.4915 42.2465C20.6514 42.4519 20.8758 42.5966 21.1292 42.6574C21.3223 42.7376 21.5358 42.7546 21.7389 42.7053C21.9918 42.6574 22.2138 42.5093 22.3557 42.2949C22.5056 42.0781 22.5782 41.8171 22.5621 41.5543C22.5246 41.2976 22.3984 41.0618 22.2048 40.8891C22.016 40.7069 21.7764 40.5873 21.5173 40.5456C21.2198 40.5361 20.928 40.6291 20.6908 40.8084C20.4574 40.9873 20.3103 41.2563 20.2852 41.549C20.2885 41.7929 20.3601 42.0311 20.4915 42.2365V42.2465ZM31.7256 43.9545C31.8124 43.6309 31.7859 43.287 31.6502 42.9805C31.5311 42.6593 31.3062 42.3884 31.0125 42.2123C30.4318 41.8688 29.7733 41.903 29.0364 42.3153C28.7575 42.4723 28.5345 42.7129 28.3992 43.0028C28.2431 43.3586 28.293 43.7714 28.5297 44.0803C28.7518 44.3796 29.0407 44.624 29.3733 44.7934C29.6214 44.921 29.8914 45.0002 30.1689 45.0268C30.5058 45.0595 30.8431 44.9665 31.1155 44.7658C31.4025 44.5727 31.617 44.2895 31.7256 43.9616V43.9545Z" fill="#FFCC00"/>
<path d="M33.9833 41.7313C33.8135 41.2877 33.4386 40.7601 32.8579 40.1471C31.8839 39.1365 31.054 38.4533 30.368 38.097C29.3807 37.5851 28.0342 37.3132 26.3285 37.2809C25.7022 37.2681 25.0759 37.3023 24.4554 37.3839C23.339 37.6249 22.3018 38.144 21.4397 38.8927C21.1498 39.1114 20.8832 39.3595 20.6441 39.6333L19.3142 41.4514C18.8345 42.1189 18.4905 42.6219 18.2832 42.9597C18.4208 43.6092 18.5759 44.3863 18.7491 45.2916L21.3263 41.5819C21.6286 41.1563 21.9711 40.7611 22.3488 40.4014C23.0486 39.7519 24.0132 39.3339 25.2425 39.147C26.3062 39.0378 27.3813 39.1171 28.4175 39.3804C28.7833 39.4473 29.1434 39.5412 29.495 39.6622C29.9533 39.8686 30.5663 40.3374 31.3335 41.068C31.983 41.7498 32.3944 42.2708 32.5676 42.6318C32.8375 43.194 32.9571 43.9873 32.9248 45.0117C32.8883 45.7983 32.8446 46.3791 32.7943 46.7539C32.7621 47.1467 33.2237 47.197 34.1793 46.9052C33.7859 47.0105 33.7428 46.9418 34.0483 46.6988C34.0668 46.5109 34.0758 46.3235 34.0758 46.1371L34.1793 43.6263C34.185 42.7248 34.1195 42.0933 33.9833 41.7313Z" fill="black"/>
<path d="M30.5754 23.8577C30.1821 24.3161 29.6198 25.162 28.8878 26.3956C28.206 27.5205 27.6139 28.3389 27.1109 28.8509C26.7091 29.2471 26.2731 29.6076 25.8086 29.9284C25.7606 29.9649 25.3004 30.2738 24.4289 30.8545C24.1916 31.0049 23.9691 31.1776 23.7637 31.3698C22.8821 31.8779 22.1159 32.5644 21.5148 33.3857C20.815 34.3408 20.4212 35.2897 20.3343 36.2329C20.3002 36.7168 20.3002 37.2022 20.3343 37.6866C20.3609 38.1653 20.3353 38.646 20.2584 39.1195C20.1227 39.6646 19.8978 40.1837 19.5937 40.6557C19.3873 40.9798 19.0718 41.4504 18.6467 42.0682C18.2539 42.6124 18.176 43.046 18.4133 43.3706C18.5229 43.5347 18.7022 43.6386 18.8996 43.6524C19.1107 43.688 19.328 43.6514 19.5164 43.5494C19.7863 43.4118 20.0677 43.1215 20.36 42.6779C21.3155 41.2977 21.8687 40.1979 22.0201 39.379C22.0594 39.1522 22.0779 38.9216 22.0746 38.6915C22.2274 38.7598 22.3982 38.7769 22.5609 38.7399L22.9718 38.5677C23.1028 38.5221 23.2242 38.4524 23.3291 38.3618C23.46 38.2707 23.5511 38.1331 23.5834 37.977C23.6275 37.9756 23.6716 37.9684 23.7139 37.9561C24.7382 37.6994 26.2313 37.6558 28.1936 37.8256C28.5865 37.8579 28.9366 37.9011 29.2436 37.9561C29.3124 38.1174 29.4049 38.2678 29.5169 38.403C29.8058 38.7385 30.1768 38.9937 30.5939 39.1437C30.7429 39.1859 30.889 39.2362 31.0323 39.2945C31.2083 39.4354 31.3658 39.5977 31.5015 39.7775C31.7074 40.0342 32.0391 40.4024 32.4964 40.8825C32.6601 41.1373 32.8067 41.403 32.9344 41.6782C33.1222 42.0848 33.3097 42.3315 33.4961 42.4183C33.6536 42.5042 33.8363 42.5308 34.0118 42.4942L33.7025 43.5992C33.6299 44.0011 33.711 44.4153 33.9293 44.7607V44.7811C33.8605 44.8499 33.7851 44.9277 33.7025 45.015C33.4639 45.2266 33.2347 45.4482 33.015 45.6797C33.1256 45.9824 33.1612 46.3074 33.1185 46.6267C33.1118 46.8611 33.0682 47.0936 32.9875 47.3137L32.9396 47.5476L34.78 46.1352L35.0618 45.8534C35.7934 45.1716 36.3215 44.6435 36.646 44.2692C37.2339 43.5741 37.7021 42.786 38.0309 41.9372C38.4053 40.9456 38.6088 39.6902 38.6406 38.1725C38.7554 37.8854 38.8698 37.6041 38.9846 37.3289C39.154 36.8354 39.3414 36.2054 39.5463 35.4387C39.8704 34.2269 40.0426 33.5968 40.0621 33.5489C40.5859 31.802 41.3526 30.1376 42.3385 28.6037C42.6445 28.0733 42.6948 27.698 42.4898 27.4778C41.316 28.5235 40.4184 29.843 39.8761 31.3185L39.4828 32.4662C39.1862 33.2187 38.828 33.946 38.4124 34.6397C38.4138 34.5543 38.4048 34.4689 38.3849 34.3854C38.41 34.2549 38.4447 34.1263 38.4878 34.0006C38.6596 33.4768 38.8631 32.9634 39.098 32.4643C39.4932 31.5415 39.8505 30.7715 40.1702 30.1552C40.6072 29.3566 41.0954 28.5871 41.6306 27.8507C42.6549 26.5702 43.2608 25.7769 43.4487 25.4709C43.6456 25.1838 43.7533 24.8451 43.758 24.4968C43.7286 24.3237 43.647 24.1633 43.5241 24.038C43.4051 23.9133 43.238 23.8454 43.0653 23.8525C42.914 23.8891 42.7176 24.0442 42.4761 24.318C41.6804 25.3471 40.8259 26.3292 39.9174 27.26L38.5875 28.645C38.4499 28.7958 38.3042 28.9491 38.1495 29.1038C38.3607 28.6934 38.6012 28.2986 38.8693 27.9229C39.3447 27.3103 39.6948 26.8487 39.9193 26.5379C40.4815 25.7204 40.9593 24.4674 41.3521 22.7803C41.1139 22.7618 40.9014 23.018 40.7149 23.5484C40.4777 24.0414 40.138 24.4779 39.7181 24.8285L38.4897 25.9814C38.038 26.5118 37.6424 27.0878 37.3093 27.6999C37.4649 27.1557 37.6775 26.4492 37.9465 25.581L40.0241 19.127C40.1755 18.5097 40.0976 18.1415 39.7902 18.0225C39.4662 17.9214 39.1848 18.1615 38.9466 18.7422C38.4162 19.9174 37.5726 21.2388 36.4154 22.7062C36.0121 23.2457 35.5747 23.7586 35.1064 24.2425C34.8929 24.5058 34.6713 24.7621 34.4412 25.0107C34.5973 24.7402 34.7164 24.5277 34.799 24.373C34.9778 24.0803 35.1747 23.7984 35.3882 23.5294C35.6938 23.2054 35.9158 22.9587 36.0529 22.7888C36.5132 22.2911 36.8699 21.7071 37.1029 21.0703C37.2908 20.6595 37.2495 20.4033 36.9791 20.3027C36.842 20.2476 36.6612 20.3141 36.4382 20.5019C35.6188 21.2568 34.6543 22.4524 33.5445 24.0898C33.5051 24.0712 33.4596 24.0712 33.4207 24.0898C33.3044 24.1064 33.1963 24.1595 33.1113 24.2406C32.9353 24.4537 32.7816 24.6838 32.6525 24.9281C32.533 25.1838 32.3954 25.4315 32.2421 25.6687C31.9309 26.0369 31.5679 26.3581 31.1647 26.6224C31.3388 26.2983 31.613 25.8206 31.9878 25.1891C32.6549 24.0134 33.2371 22.7917 33.73 21.5329C33.8197 21.3227 33.8619 21.096 33.8539 20.8677C33.8244 20.7515 33.7651 20.6448 33.6816 20.5584C33.6014 20.4763 33.4814 20.4469 33.3728 20.483C33.2214 20.4967 33.0928 20.6495 32.9875 20.9418C32.7175 21.5106 32.3532 22.0297 31.9105 22.478C31.623 22.7836 31.1794 23.2419 30.5801 23.8525L30.5754 23.8577ZM35.9068 42.7761L35.8314 42.8515C35.838 42.8453 35.8418 42.8368 35.8423 42.8273C35.8418 42.8183 35.838 42.8097 35.8314 42.8036C35.8537 42.7908 35.8783 42.7832 35.9035 42.7813L35.9068 42.7761Z" fill="black"/>
<path d="M24.4281 45.4221C23.9385 45.2195 23.539 44.8466 23.3027 44.3722L23.1514 44.1662L22.844 44.4168C22.908 45.1934 23.4038 45.8672 24.1259 46.1594C25.489 46.7401 26.7852 46.6552 28.0141 45.9051L28.2204 46.4669C28.3761 46.4669 28.5293 46.474 28.6792 46.4873C28.711 46.4612 28.7371 46.4284 28.7547 46.3914C28.7855 46 28.7072 45.6081 28.5279 45.2589C28.4781 45.1365 28.4207 45.0169 28.3561 44.9016L27.7669 44.5164L27.5605 44.5923L27.4575 44.8257L27.691 45.3415C26.8365 45.7998 25.7486 45.8249 24.4263 45.4169L24.4281 45.4221ZM22.8145 39.6812L23.1723 40.4769L23.3027 40.6487C23.3938 40.7388 23.5186 40.7862 23.6463 40.7791C23.7786 40.7834 23.9034 40.7184 23.9765 40.6074C24.0448 40.493 24.0291 40.2876 23.9281 39.9906L23.8455 39.7638L23.6396 39.482C23.5547 39.3752 23.4494 39.2865 23.3303 39.221C23.1927 39.1684 23.0385 39.1892 22.9194 39.2761C22.8164 39.3838 22.7775 39.5375 22.8164 39.6812H22.8145ZM27.9714 41.1421C27.7284 41.2104 27.5823 41.3138 27.533 41.4514C27.5007 41.6189 27.5852 41.7878 27.7394 41.8618C27.8807 41.9358 28.0387 41.9714 28.1981 41.9648C28.5203 41.9653 28.8401 41.9116 29.1447 41.8068C29.2832 41.7461 29.4317 41.711 29.5831 41.7038L29.9128 41.7314C30.1235 41.7091 30.2853 41.5354 30.2929 41.3243C30.3175 41.2218 30.2976 41.1136 30.2392 41.0268C30.1804 40.9395 30.0874 40.8807 29.9835 40.8655C29.8834 40.847 29.7809 40.847 29.6808 40.8655C29.0987 40.8873 28.5213 40.9817 27.9628 41.1468L27.9714 41.1421ZM33.7018 42.183C33.6074 41.6284 33.3872 41.1027 33.0575 40.6472C32.742 40.188 32.2813 39.8478 31.7499 39.6812C31.5715 39.5987 31.3661 39.5987 31.1877 39.6812C31.0268 39.7572 30.9191 39.9142 30.9063 40.0921C30.8883 40.2819 30.9343 40.4722 31.0368 40.6335C31.2252 40.9371 31.4567 41.2118 31.7238 41.4495C32.1352 41.9615 32.2903 42.8326 32.1897 44.0628L32.0868 45.5237C32.082 45.7694 32.0284 46.0119 31.9283 46.2368C31.8277 46.4061 31.59 46.5864 31.2152 46.7781C30.141 47.3294 29.027 47.7996 27.8817 48.1834C26.6011 48.5763 25.433 48.7044 24.3764 48.5682C23.939 48.5341 23.5125 48.4126 23.1225 48.211C22.741 47.9505 22.389 47.6492 22.0725 47.3123C20.9637 46.1841 20.2743 45.1854 20.0053 44.3171C19.9721 44.1833 19.9626 44.0438 19.9778 43.9067C20.0561 43.7677 20.1249 43.6235 20.1842 43.4754C20.2141 43.3317 20.2046 43.1827 20.1567 43.0442C20.1192 42.9004 20.0936 42.7538 20.0807 42.6058C20.1102 42.4454 20.1192 42.2822 20.1083 42.1195C20.1068 41.9097 19.9977 41.7152 19.8198 41.6042C19.6632 41.4747 19.4583 41.4196 19.258 41.4529C19.054 41.4927 18.8771 41.6175 18.7717 41.7964C18.656 41.9648 18.6261 42.1769 18.6906 42.3704C18.1972 42.6271 17.968 43.0797 18.0036 43.7279C18.0221 44.1207 18.1938 44.626 18.5188 45.2433C19.1304 46.2633 19.8601 47.2075 20.6928 48.0563C21.0591 48.4714 21.4813 48.8339 21.9468 49.1338C22.7154 49.6272 23.6984 49.8744 24.8955 49.8744C25.9758 49.8782 27.0509 49.733 28.0914 49.4431C28.8097 49.2552 29.8407 48.9117 31.1844 48.4121C31.6004 48.2698 32.0028 48.0909 32.3871 47.8774C32.7581 47.681 33.0618 47.3773 33.2587 47.0063C33.3958 46.7501 33.4992 46.2628 33.5675 45.546C33.6548 44.8139 33.7122 44.2607 33.7398 43.8858C33.7834 43.3184 33.7706 42.7481 33.7018 42.183Z" fill="black"/>
</g>
<path d="M197.16 36.7978H196.49V46.0506H197.377V39.5877L198.026 38.7956L198.854 38.0946C199.163 37.9001 199.493 37.7414 199.838 37.6214C200.172 37.4925 200.527 37.426 200.885 37.4252C201.193 37.4109 201.5 37.4665 201.784 37.5879C202.067 37.7092 202.32 37.8932 202.523 38.1261C202.95 38.6924 203.159 39.3942 203.113 40.1029V46.0506H203.999V40.1204C204.007 39.6193 203.941 39.1198 203.804 38.6378C203.685 38.2384 203.484 37.8683 203.214 37.5513C202.93 37.241 202.581 36.9981 202.192 36.8405C201.803 36.6828 201.384 36.6143 200.966 36.6401C200.584 36.6382 200.204 36.6986 199.842 36.8188C199.496 36.9408 199.164 37.0982 198.85 37.2885C198.553 37.4699 198.275 37.6826 198.023 37.9228L197.373 38.6238L197.157 36.8048L197.16 36.7978ZM190.175 36.8433C189.81 36.7079 189.423 36.6414 189.033 36.6471C188.521 36.6485 188.015 36.7684 187.556 36.9976C187.096 37.2195 186.687 37.5359 186.356 37.9264C185.986 38.3616 185.705 38.8652 185.528 39.4089C185.309 40.0589 185.203 40.7417 185.214 41.4277C185.198 42.1713 185.298 42.9128 185.511 43.6253C185.675 44.1741 185.958 44.6802 186.338 45.1078C186.675 45.4917 187.102 45.7845 187.581 45.9595C188.078 46.1486 188.606 46.2425 189.138 46.2364C189.801 46.2536 190.454 46.0678 191.009 45.7037C191.547 45.3342 191.987 44.8385 192.29 44.2597V45.6616C192.302 46.2091 192.236 46.7554 192.095 47.2844C191.963 47.6873 191.748 48.0576 191.463 48.3709C191.213 48.6473 190.893 48.8518 190.538 48.9632C190.135 49.0854 189.716 49.1457 189.295 49.1419C188.736 49.1481 188.179 49.075 187.64 48.9246C187.187 48.816 186.75 48.6499 186.338 48.4304L186.122 49.1314C186.553 49.3464 187.001 49.5246 187.462 49.6642C188.044 49.8415 188.649 49.9278 189.257 49.92C189.815 49.9306 190.37 49.8368 190.894 49.6431C191.365 49.4816 191.791 49.2102 192.137 48.851C192.835 48.1501 193.184 47.0881 193.184 45.6651V36.7978H192.531L192.294 38.6168L191.823 37.9439C191.621 37.6999 191.386 37.4863 191.124 37.3095C190.84 37.108 190.529 36.9486 190.199 36.8363L190.175 36.8433ZM187.026 38.3995C187.298 38.0953 187.627 37.8466 187.993 37.667C188.36 37.5086 188.756 37.4274 189.155 37.4287C189.477 37.4274 189.797 37.4807 190.101 37.5864C190.407 37.6802 190.695 37.8273 190.95 38.021L191.7 38.6939L192.311 39.5842V41.999C192.311 42.4213 192.251 42.8414 192.133 43.2467C191.99 43.6398 191.783 44.0068 191.522 44.3333C191.25 44.6826 190.899 44.9628 190.499 45.1515C190.099 45.3402 189.66 45.4321 189.218 45.4198C188.821 45.4192 188.427 45.3456 188.056 45.2025C187.673 45.058 187.334 44.8165 187.071 44.5015C186.756 44.1456 186.519 43.7278 186.373 43.2748C186.189 42.6661 186.103 42.032 186.118 41.3962C186.109 40.8033 186.189 40.2125 186.356 39.6437C186.5 39.1898 186.728 38.7667 187.026 38.396V38.3995ZM182.69 36.7943H181.803V46.0506H182.69V36.7978V36.7943ZM182.809 33.1983C182.731 33.1287 182.641 33.0755 182.542 33.0417C182.444 33.008 182.34 32.9945 182.236 33.002C182.136 32.9958 182.035 33.0099 181.94 33.0437C181.846 33.0774 181.759 33.13 181.684 33.1983C181.556 33.3383 181.486 33.5229 181.489 33.7135C181.485 33.8082 181.501 33.9027 181.534 33.9912C181.568 34.0798 181.619 34.1606 181.684 34.2287C181.755 34.3033 181.841 34.3615 181.936 34.399C182.032 34.4366 182.134 34.4526 182.236 34.446C182.341 34.4533 182.447 34.4377 182.546 34.4002C182.645 34.3627 182.734 34.3042 182.809 34.2287C182.874 34.1606 182.925 34.0798 182.959 33.9912C182.993 33.9027 183.008 33.8082 183.004 33.7135C183.008 33.5229 182.937 33.3383 182.809 33.1983ZM173.98 38.8551C173.968 38.6389 174.015 38.4235 174.116 38.2321C174.217 38.0406 174.367 37.8804 174.552 37.7686C175.037 37.4921 175.591 37.3619 176.148 37.3936C177.012 37.3939 177.866 37.5828 178.651 37.9474L178.888 37.2464L177.666 36.8293C177.17 36.7059 176.659 36.6459 176.148 36.6506C175.748 36.6493 175.35 36.7023 174.964 36.8083C174.622 36.8763 174.299 37.0187 174.018 37.2254C173.748 37.4025 173.525 37.6432 173.369 37.9264C173.206 38.2372 173.124 38.5845 173.131 38.9358C173.121 39.2849 173.195 39.6313 173.348 39.9452C173.489 40.2297 173.683 40.4844 173.92 40.6952C174.18 40.9072 174.465 41.0861 174.769 41.2279L176.839 41.9605C177.126 42.0593 177.398 42.1998 177.645 42.3775C177.855 42.5354 178.035 42.7302 178.176 42.9523C178.356 43.2884 178.415 43.6767 178.343 44.0515C178.272 44.4263 178.073 44.7648 177.781 45.0097C177.4 45.3135 176.802 45.4653 175.987 45.4653C175.503 45.4657 175.021 45.4129 174.549 45.3076C174.141 45.2267 173.744 45.0997 173.365 44.9291L173.149 45.6301C173.559 45.8031 173.981 45.9437 174.413 46.0506C174.93 46.1703 175.459 46.2302 175.991 46.2294C176.468 46.2365 176.944 46.1835 177.408 46.0717C177.773 45.9677 178.115 45.7926 178.413 45.5565C178.675 45.3379 178.882 45.0614 179.019 44.7488C179.156 44.4362 179.219 44.096 179.202 43.755C179.219 43.4158 179.159 43.0773 179.026 42.7651C178.893 42.4529 178.69 42.1753 178.434 41.9534C177.747 41.4399 176.963 41.0705 176.13 40.8669C175.582 40.7245 175.062 40.4873 174.594 40.166C174.392 40.0208 174.231 39.8267 174.124 39.6018C174.017 39.3769 173.969 39.1284 173.983 38.8797L173.98 38.8551ZM163.939 39.5281C163.572 40.7676 163.572 42.0878 163.939 43.3274C164.109 43.8825 164.383 44.4 164.746 44.852C165.12 45.2784 165.584 45.616 166.104 45.8404C166.711 46.0865 167.362 46.2058 168.017 46.1908C168.537 46.1973 169.055 46.124 169.553 45.9735C169.965 45.8546 170.362 45.6888 170.736 45.4793L170.499 44.8064C170.158 45.0022 169.795 45.1552 169.417 45.262C168.977 45.3962 168.519 45.4624 168.059 45.4583C166.895 45.4583 166.035 45.1219 165.479 44.4489C165.186 44.1126 164.958 43.7237 164.809 43.3028C164.646 42.8305 164.554 42.337 164.533 41.8378H170.991L171.229 40.3132C171.238 39.784 171.165 39.2566 171.012 38.75C170.869 38.3263 170.641 37.9363 170.342 37.6039C169.765 36.9567 168.918 36.6331 167.8 36.6331C167.178 36.6166 166.56 36.7362 165.989 36.9835C165.487 37.2123 165.048 37.5584 164.707 37.9929C164.351 38.4438 164.09 38.9625 163.939 39.5176V39.5281ZM166.324 37.639C166.787 37.429 167.292 37.3272 167.8 37.341C168.694 37.341 169.358 37.5852 169.79 38.0736C170.014 38.3377 170.175 38.6492 170.262 38.9848C170.374 39.4171 170.427 39.8629 170.419 40.3097L170.338 41.1614H164.543C164.553 40.6461 164.625 40.134 164.76 39.6367C164.86 39.2014 165.048 38.7911 165.311 38.4311C165.583 38.0942 165.926 37.8234 166.317 37.639H166.324ZM158.197 36.8293C157.831 36.6939 157.444 36.6274 157.055 36.6331C156.542 36.6345 156.037 36.7544 155.578 36.9835C155.118 37.2055 154.709 37.5219 154.377 37.9123C154.008 38.3476 153.727 38.8512 153.55 39.3949C153.331 40.0448 153.225 40.7277 153.236 41.4137C153.22 42.1573 153.32 42.8987 153.532 43.6113C153.697 44.1601 153.98 44.6661 154.36 45.0938C154.697 45.4776 155.124 45.7705 155.603 45.9455C156.1 46.1346 156.628 46.2285 157.16 46.2224C157.823 46.2396 158.475 46.0538 159.031 45.6896C159.569 45.3201 160.008 44.8245 160.312 44.2456L160.55 46.0647H161.199V33.1667H160.312V38.6273L159.841 37.9544C159.64 37.7104 159.404 37.4968 159.143 37.32C158.858 37.1185 158.547 36.9591 158.217 36.8469L158.197 36.8293ZM155.044 38.41C155.317 38.1058 155.645 37.8571 156.011 37.6775C156.378 37.5191 156.774 37.438 157.174 37.4392C157.496 37.4379 157.815 37.4912 158.12 37.5969C158.426 37.6907 158.713 37.8378 158.968 38.0315L159.719 38.7044L160.33 39.5947V42.0095C160.33 42.4318 160.27 42.8519 160.152 43.2573C160.008 43.6503 159.802 44.0173 159.541 44.3438C159.268 44.6931 158.917 44.9734 158.517 45.162C158.117 45.3507 157.678 45.4426 157.236 45.4303C156.839 45.4297 156.445 45.3561 156.074 45.213C155.691 45.0685 155.352 44.827 155.089 44.512C154.775 44.1562 154.537 43.7384 154.391 43.2853C154.208 42.6767 154.121 42.0425 154.136 41.4067C154.127 40.8139 154.207 40.223 154.374 39.6543C154.519 39.2003 154.746 38.7773 155.044 38.4065V38.41ZM141.862 36.8048H140.423V38.5257H141.82V43.2327C141.82 44.2748 142.053 45.0459 142.518 45.5459C142.759 45.8073 143.065 45.9986 143.405 46.0997C143.83 46.24 144.277 46.3064 144.724 46.296C145.125 46.3028 145.523 46.2496 145.908 46.1383C146.26 46.0278 146.598 45.8748 146.913 45.6826L146.421 43.9022C146.056 44.1736 145.615 44.3253 145.161 44.3368C145.033 44.3453 144.905 44.327 144.785 44.2829C144.665 44.2389 144.555 44.1701 144.463 44.0809C144.284 43.8431 144.199 43.5471 144.225 43.2503V38.5187H146.847V36.7978H144.225V34.1656H142.452L141.879 36.7978L141.862 36.8048ZM132.422 39.5491C132.234 40.1573 132.141 40.791 132.146 41.4277C132.141 42.0661 132.241 42.7008 132.443 43.3063C132.627 43.8772 132.929 44.4027 133.33 44.8485C133.736 45.307 134.241 45.6666 134.806 45.8999C135.454 46.1751 136.152 46.3101 136.856 46.296C137.393 46.2933 137.929 46.2274 138.451 46.0997C138.963 45.9915 139.455 45.8047 139.91 45.5459L139.38 43.7935C139.012 43.9916 138.621 44.1446 138.217 44.2491C137.798 44.3559 137.368 44.4089 136.936 44.4069C136.597 44.4296 136.257 44.3676 135.948 44.2263C135.638 44.085 135.368 43.8689 135.162 43.5972C134.967 43.307 134.82 42.986 134.73 42.6474C134.632 42.246 134.585 41.8339 134.59 41.4207C134.547 40.6527 134.748 39.8909 135.162 39.2442C135.35 38.978 135.611 38.7722 135.913 38.6519C136.277 38.5118 136.665 38.4451 137.055 38.4556C137.446 38.4527 137.837 38.4998 138.217 38.5958C138.576 38.6969 138.921 38.8429 139.243 39.0304L139.757 37.3095C139.32 37.0578 138.85 36.8713 138.36 36.7557C137.877 36.6372 137.381 36.5772 136.884 36.577C136.167 36.5598 135.455 36.6873 134.789 36.952C134.232 37.1872 133.733 37.5404 133.325 37.9875C132.917 38.4345 132.61 38.9649 132.425 39.5421L132.422 39.5491ZM126.477 36.5875C125.803 36.5824 125.133 36.6757 124.487 36.8644C123.944 37.0103 123.426 37.2371 122.951 37.5373L123.481 39.2196C123.885 38.984 124.315 38.7981 124.763 38.6659C125.223 38.531 125.7 38.4649 126.18 38.4696C126.628 38.4333 127.075 38.5574 127.44 38.8201C127.589 38.9615 127.705 39.1341 127.779 39.3255C127.854 39.5169 127.886 39.7225 127.873 39.9276V40.2256H126.585C125.998 40.2207 125.413 40.2807 124.839 40.4043C124.362 40.5027 123.907 40.6906 123.499 40.9581C123.145 41.2213 122.86 41.5679 122.671 41.9675C122.462 42.4328 122.361 42.9397 122.375 43.45C122.367 43.8587 122.448 44.2642 122.612 44.6382C122.748 44.9825 122.957 45.2933 123.223 45.5495C123.489 45.7887 123.797 45.9764 124.131 46.1032C124.483 46.2365 124.857 46.3031 125.234 46.2995C125.561 46.3032 125.888 46.2559 126.201 46.1593L126.93 45.8439L127.482 45.3707L127.898 44.8555L128.152 46.0612H130.247V40.0678C130.274 39.5985 130.206 39.1286 130.047 38.6864C129.888 38.2442 129.641 37.839 129.322 37.4953C128.717 36.8877 127.771 36.584 126.484 36.584L126.477 36.5875ZM126.564 41.8413H127.884V42.2969C127.886 42.5883 127.833 42.8775 127.726 43.1486C127.627 43.4076 127.481 43.6454 127.294 43.8496C127.096 44.0598 126.859 44.2278 126.595 44.3438C126.315 44.4636 126.013 44.5244 125.709 44.5225C125.568 44.5269 125.429 44.501 125.299 44.4466C125.17 44.3922 125.053 44.3105 124.958 44.2071C124.85 44.0988 124.766 43.9688 124.712 43.8256C124.658 43.6824 124.635 43.5293 124.644 43.3764C124.632 43.1607 124.673 42.9454 124.762 42.7489C124.852 42.5523 124.987 42.3804 125.157 42.2479C125.564 41.9603 126.057 41.8206 126.553 41.8518L126.564 41.8413ZM118.849 36.8854C118.31 36.6765 117.736 36.5753 117.159 36.5875L116.112 36.6681C115.796 36.7436 115.487 36.8432 115.187 36.966C114.645 37.2009 114.166 37.5612 113.79 38.0175C113.422 38.4661 113.148 38.9846 112.984 39.5421C112.809 40.1527 112.723 40.7855 112.729 41.4207C112.72 42.0968 112.813 42.7703 113.005 43.4185C113.183 43.9921 113.486 44.5188 113.891 44.9606C114.293 45.4009 114.793 45.7395 115.351 45.949C116.012 46.1971 116.715 46.316 117.421 46.2995C118.008 46.3064 118.595 46.2405 119.166 46.1032C119.655 45.9853 120.125 45.7989 120.563 45.5495L120.032 43.8286C119.319 44.2181 118.519 44.4217 117.707 44.4209C117.12 44.4308 116.546 44.2501 116.07 43.9057C115.813 43.7084 115.599 43.4611 115.44 43.1786C115.281 42.8961 115.181 42.5843 115.145 42.2619H120.839L121.034 41.4312L121.114 40.52C121.118 39.9882 121.032 39.4595 120.86 38.9568C120.698 38.4841 120.436 38.0524 120.091 37.6915C119.741 37.3435 119.326 37.0684 118.87 36.8819L118.849 36.8854ZM115.064 40.8319C115.091 40.1733 115.317 39.5385 115.714 39.0129C115.887 38.7972 116.109 38.6275 116.363 38.5187C116.625 38.4109 116.907 38.3572 117.19 38.361C117.43 38.3566 117.669 38.4044 117.889 38.5012C118.086 38.5945 118.256 38.7383 118.381 38.9182C118.689 39.4149 118.834 39.9958 118.796 40.5795V40.8354H115.064V40.8319ZM110.334 34.3269C109.911 33.9409 109.415 33.6451 108.875 33.4576C108.245 33.2493 107.586 33.1486 106.923 33.1597H102.098V46.0506H104.591V41.2279H106.462L109.255 46.0541H111.894L108.861 40.7968C109.626 40.5364 110.303 40.0637 110.812 39.4334C111.321 38.7873 111.587 37.982 111.563 37.1588C111.567 36.6215 111.46 36.0893 111.249 35.5956C111.054 35.1111 110.75 34.6782 110.362 34.3304L110.334 34.3269ZM106.972 35.3012C107.286 35.2954 107.599 35.3428 107.897 35.4414C108.143 35.5097 108.371 35.6291 108.567 35.7919C108.741 35.9722 108.876 36.1861 108.964 36.4205C109.052 36.6549 109.092 36.9049 109.081 37.1553C109.085 37.4315 109.037 37.7061 108.941 37.9649C108.852 38.1975 108.702 38.4019 108.508 38.5572C108.299 38.743 108.056 38.8856 107.793 38.977C107.529 39.0684 107.25 39.1068 106.972 39.09H104.591V35.2942H106.955L106.972 35.3012ZM96.2125 36.6401C95.8307 36.6382 95.451 36.6986 95.0884 36.8188C94.7385 36.9354 94.4015 37.0881 94.083 37.2744C93.7856 37.4559 93.5082 37.6686 93.2556 37.9088L92.6062 38.6098L92.3723 36.7978H91.7021V46.0506H92.5888V39.5877L93.2381 38.7956L94.0655 38.0946C94.3749 37.9001 94.7051 37.7414 95.05 37.6214C95.3843 37.4925 95.7392 37.426 96.0973 37.4252C96.4052 37.4109 96.7123 37.4665 96.9957 37.5879C97.2792 37.7092 97.5318 37.8932 97.7346 38.1261C98.1615 38.6924 98.371 39.3942 98.3246 40.1029V46.0506H99.2114V40.1204C99.2189 39.6193 99.153 39.1198 99.0159 38.6378C98.8966 38.2384 98.6957 37.8683 98.4259 37.5513C98.1423 37.241 97.7933 36.9981 97.4044 36.8405C97.0154 36.6828 96.5963 36.6143 96.1776 36.6401H96.2125ZM85.4565 36.7978H84.7862V46.0506H85.673V39.5877C85.9733 39.0304 86.3665 38.529 86.8355 38.1051C87.0507 37.9121 87.2976 37.758 87.5651 37.6495C87.838 37.5548 88.1248 37.5074 88.4135 37.5093L89.0838 37.5899L89.5376 37.7862L89.754 36.9345L89.2234 36.7382L88.5252 36.6401C88.2274 36.6396 87.9328 36.7005 87.6594 36.8188C87.3753 36.9212 87.1091 37.0679 86.8704 37.2534L86.2001 37.8668L85.6869 38.6168L85.4705 36.7978H85.4565ZM79.8534 36.8784C79.3793 36.7107 78.8791 36.6299 78.3766 36.6401C77.7759 36.6333 77.1777 36.7196 76.6032 36.8959C76.1441 37.0213 75.7012 37.2 75.2835 37.4287L75.5 38.0806C75.9007 37.8698 76.3234 37.7041 76.7603 37.5864C77.2875 37.4465 77.8314 37.3804 78.3766 37.3901C78.7306 37.3859 79.0834 37.4331 79.424 37.5303C79.7152 37.6161 79.9844 37.7644 80.2129 37.9649C80.4398 38.1632 80.6037 38.424 80.6842 38.715C80.7979 39.0932 80.8509 39.4871 80.8413 39.8821V40.534H78.5931C77.2525 40.534 76.2413 40.784 75.5593 41.284C75.2169 41.542 74.9437 41.8814 74.7646 42.2718C74.5854 42.6622 74.5058 43.0912 74.533 43.5201C74.5262 43.9198 74.5998 44.3168 74.7494 44.6873C74.887 45.0074 75.0961 45.2916 75.3603 45.5179C75.6325 45.7675 75.9588 45.9499 76.3134 46.0506C76.6818 46.1717 77.0673 46.232 77.455 46.2294C78.1656 46.2494 78.8677 46.0711 79.4833 45.7142C80.0753 45.3656 80.5589 44.8583 80.8797 44.2491L81.1171 46.0682H81.749V39.8856C81.7541 39.4278 81.6809 38.9726 81.5326 38.5397C81.4046 38.1626 81.1961 37.8181 80.9216 37.5303C80.626 37.2365 80.2679 37.0136 79.8743 36.8784H79.8534ZM77.1548 41.4347C77.6404 41.3342 78.1356 41.2872 78.6315 41.2945H80.8797V42.325C80.8784 42.7135 80.7976 43.0976 80.6423 43.4535C80.4939 43.8295 80.2733 44.1725 79.993 44.4629C79.7002 44.7797 79.343 45.0295 78.9457 45.1955C78.4905 45.3869 78.0007 45.4812 77.5073 45.4723C77.221 45.4772 76.9358 45.4358 76.6625 45.3497C76.4194 45.2756 76.1921 45.1567 75.9922 44.9992C75.8055 44.8368 75.6576 44.6344 75.5593 44.4069C75.4363 44.134 75.3755 43.8371 75.3813 43.5377C75.3735 43.191 75.4402 42.8467 75.5768 42.5282C75.7024 42.2538 75.8915 42.0135 76.1284 41.8273C76.4355 41.6324 76.7767 41.498 77.1338 41.4312L77.1548 41.4347ZM65.6831 39.5316C65.3156 40.7711 65.3156 42.0913 65.6831 43.3309C65.8527 43.886 66.1264 44.4035 66.4895 44.8555C66.8637 45.2819 67.3275 45.6195 67.8475 45.8439C68.4549 46.09 69.1059 46.2093 69.7607 46.1943C70.2807 46.2008 70.7987 46.1275 71.2967 45.977C71.7087 45.8581 72.1058 45.6923 72.4802 45.4829L72.2428 44.8099C71.902 45.0057 71.5385 45.1587 71.1606 45.2656C70.7204 45.3997 70.2625 45.4659 69.8026 45.4618C68.6389 45.4618 67.7789 45.1254 67.2226 44.4524C66.9295 44.1161 66.7021 43.7272 66.5524 43.3063C66.3902 42.834 66.2973 42.3405 66.2766 41.8413H72.7385L72.9759 40.3167C72.9853 39.7875 72.9123 39.2601 72.7595 38.7535C72.6158 38.3298 72.3878 37.9398 72.0892 37.6074C71.512 36.9602 70.6648 36.6366 69.5477 36.6366C68.9256 36.6201 68.3073 36.7397 67.7358 36.987C67.2403 37.2157 66.8059 37.5592 66.4686 37.9894C66.1126 38.4403 65.8513 38.959 65.7005 39.5141L65.6831 39.5316ZM67.097 38.4275C67.3683 38.0907 67.712 37.8199 68.1024 37.6355C68.5659 37.4255 69.0708 37.3237 69.5791 37.3375C70.4728 37.3375 71.1361 37.5817 71.569 38.0701C71.7926 38.3342 71.9538 38.6457 72.0403 38.9813C72.153 39.4136 72.2059 39.8594 72.1974 40.3062L72.1171 41.1578H66.322C66.3311 40.6426 66.4038 40.1305 66.5384 39.6332C66.6387 39.1979 66.8264 38.7876 67.09 38.4275H67.097ZM62.9007 33.1457H62V46.0506H62.8867L62.9007 33.1457Z" fill="#DC9EEB"/>
<path d="M148.666 45.8577C148.976 46.15 149.385 46.3128 149.81 46.3128C150.235 46.3128 150.643 46.15 150.953 45.8577C151.208 45.5675 151.349 45.1936 151.349 44.8063C151.349 44.419 151.208 44.045 150.953 43.7548C150.643 43.4625 150.235 43.2998 149.81 43.2998C149.385 43.2998 148.976 43.4625 148.666 43.7548C148.399 44.0391 148.25 44.4153 148.25 44.8063C148.25 45.1973 148.399 45.5734 148.666 45.8577Z" fill="white"/>
<defs>
<filter id="filter0_d" x="0" y="0" width="61.758" height="67.8745" filterUnits="userSpaceOnUse" color-interpolation-filters="sRGB">
<feFlood flood-opacity="0" result="BackgroundImageFix"/>
<feColorMatrix in="SourceAlpha" type="matrix" values="0 0 0 0 0 0 0 0 0 0 0 0 0 0 0 0 0 0 127 0"/>
<feOffset/>
<feGaussianBlur stdDeviation="9"/>
<feColorMatrix type="matrix" values="0 0 0 0 1 0 0 0 0 1 0 0 0 0 1 0 0 0 0.8 0"/>
<feBlend mode="normal" in2="BackgroundImageFix" result="effect1_dropShadow"/>
<feBlend mode="normal" in="SourceGraphic" in2="effect1_dropShadow" result="shape"/>
</filter>
</defs>
</svg>
