<svg width="120" height="120" viewBox="0 0 120 120" fill="none" xmlns="http://www.w3.org/2000/svg">
<g filter="url(#filter0_dd)">
<path d="M62.8314 76.3216C62.7246 76.0637 62.5873 75.6511 62.4179 75.0838C62.3018 74.6647 62.1637 74.2512 62.0043 73.846C61.5586 72.9139 60.9848 72.0482 60.3005 71.2745C59.8289 70.6897 59.3168 70.138 58.7688 69.6232C58.2291 69.1249 57.5826 68.7556 56.878 68.5465L56.2508 68.413C56.0371 68.366 55.8336 68.2794 55.6503 68.1588C55.4532 68.0031 55.2828 67.8162 55.1465 67.6052C54.9061 67.2322 54.7643 67.0186 54.7201 66.9651C54.4677 66.6161 54.1205 66.3472 53.719 66.1915C53.3082 66.0322 52.8624 65.9861 52.4286 66.058C52.0464 66.1344 51.6817 66.2781 51.3511 66.4816C51.1908 66.57 50.8574 66.7837 50.3499 67.1217C49.2337 67.8613 48.0189 68.4397 46.7414 68.8394C46.3141 68.9821 45.6611 69.1691 44.7834 69.4003C44.1304 69.5762 43.4967 69.8175 42.8916 70.1205C42.0019 70.5828 41.0017 71.4256 39.8901 72.6487C39.4848 73.0548 39.1072 73.4877 38.7591 73.9427C38.4073 74.3976 38.1208 74.8996 37.909 75.4338C37.5148 76.6384 37.4964 77.9343 37.8556 79.15C38.0002 79.7607 38.1862 80.3611 38.4119 80.9478L39.0796 82.7051C39.3283 83.3885 39.5244 83.8849 39.6663 84.1962C39.879 84.6825 40.1664 85.1329 40.5173 85.5307C40.8415 85.854 41.208 86.1312 41.6077 86.3541C41.8481 86.4877 42.2607 86.6921 42.8456 86.9684C43.8393 87.4133 44.6996 87.7992 45.4272 88.1252C46.3988 88.6014 47.4018 89.0103 48.4287 89.3501C49.4418 89.678 50.512 89.7913 51.5712 89.6835C51.9838 89.6366 52.3927 89.5611 52.7952 89.457C53.3358 89.305 53.7392 89.1936 54.0063 89.1227C55.7535 88.6962 57.0548 88.3628 57.9086 88.1224C59.1934 87.789 60.4147 87.2466 61.5245 86.5181C62.51 85.9111 63.2827 85.0141 63.7358 83.9494C64.0158 83.0634 64.1466 82.1368 64.1226 81.2075C64.27 79.8785 63.9946 78.5357 63.3352 77.3716C63.0773 76.865 62.9097 76.515 62.8314 76.3216Z" fill="white"/>
<path d="M39.8367 76.0673C40.1471 76.4661 40.5827 76.747 41.0745 76.8649C41.4494 77.0205 41.8638 77.0537 42.258 76.9579C42.7489 76.8649 43.1799 76.5775 43.4553 76.1612C43.7463 75.7403 43.8873 75.2338 43.8559 74.7235C43.7832 74.2253 43.5382 73.7675 43.1624 73.4323C42.7959 73.0786 42.3308 72.8465 41.8279 72.7655C41.2504 72.7471 40.684 72.9276 40.2235 73.2757C39.7704 73.6229 39.4848 74.1451 39.436 74.7134C39.4425 75.1868 39.5816 75.6491 39.8367 76.0479V76.0673ZM61.6442 79.3829C61.8128 78.7548 61.7612 78.087 61.4978 77.4921C61.2666 76.8685 60.8301 76.3427 60.26 76.001C59.1326 75.3342 57.8543 75.4005 56.424 76.2008C55.8824 76.5057 55.4495 76.9726 55.1871 77.5354C54.884 78.2261 54.9808 79.0274 55.4403 79.627C55.8714 80.2081 56.4323 80.6824 57.0779 81.0112C57.5596 81.259 58.0836 81.4128 58.6224 81.4644C59.2763 81.5279 59.9312 81.3474 60.4598 80.9578C61.017 80.583 61.4333 80.0331 61.6442 79.3967V79.3829Z" fill="#FFCC00"/>
<path d="M66.0273 75.0671C65.6976 74.206 64.97 73.1818 63.8427 71.9919C61.9518 70.0301 60.341 68.7039 59.0092 68.0122C57.0926 67.0184 54.4788 66.4907 51.1678 66.4281C49.9521 66.4032 48.7363 66.4695 47.5317 66.6279C45.3645 67.0958 43.3512 68.1034 41.6777 69.5567C41.115 69.9813 40.5974 70.463 40.1332 70.9944L37.5516 74.5237C36.6205 75.8196 35.9528 76.7958 35.5503 77.4516C35.8174 78.7124 36.1186 80.221 36.4547 81.9783L41.4576 74.777C42.0443 73.9508 42.7093 73.1836 43.4424 72.4855C44.8009 71.2247 46.6733 70.4133 49.0596 70.0504C51.1245 69.8385 53.2115 69.9924 55.223 70.5035C55.9331 70.6334 56.6321 70.8157 57.3146 71.0506C58.2043 71.4512 59.3942 72.3612 60.8835 73.7795C62.1443 75.103 62.9428 76.1143 63.279 76.8152C63.8031 77.9066 64.0352 79.4465 63.9725 81.4349C63.9016 82.962 63.8169 84.0893 63.7192 84.8169C63.6566 85.5795 64.5528 85.6771 66.4077 85.1107C65.6441 85.3151 65.5603 85.1816 66.1535 84.71C66.1894 84.3453 66.2069 83.9815 66.2069 83.6196L66.4077 78.7456C66.4187 76.9957 66.2916 75.7698 66.0273 75.0671Z" fill="black"/>
<path d="M59.4099 40.371C58.6464 41.2607 57.555 42.9028 56.1339 45.2975C54.8104 47.4812 53.661 49.0699 52.6847 50.0637C51.9046 50.8327 51.0582 51.5327 50.1565 52.1553C50.0635 52.2262 49.1702 52.8258 47.4783 53.9531C47.0178 54.245 46.5858 54.5803 46.187 54.9533C44.4758 55.9397 42.9884 57.2724 41.8215 58.8666C40.463 60.7206 39.6985 62.5626 39.53 64.3936C39.4637 65.333 39.4637 66.2752 39.53 67.2155C39.5816 68.1448 39.5318 69.0778 39.3826 69.997C39.1192 71.0552 38.6827 72.0628 38.0923 72.9792C37.6917 73.6082 37.0792 74.5219 36.254 75.721C35.4914 76.7774 35.3403 77.6192 35.8008 78.2492C36.0136 78.5678 36.3617 78.7695 36.7449 78.7963C37.1547 78.8653 37.5765 78.7944 37.9422 78.5964C38.4662 78.3293 39.0124 77.7656 39.5797 76.9045C41.4346 74.2253 42.5085 72.0904 42.8023 70.5008C42.8788 70.0605 42.9147 69.6129 42.9082 69.1662C43.2048 69.2988 43.5364 69.332 43.8523 69.2602L44.6499 68.9258C44.9041 68.8374 45.1398 68.702 45.3434 68.5261C45.5976 68.3493 45.7744 68.0822 45.837 67.7792C45.9227 67.7764 46.0083 67.7626 46.0903 67.7387C48.0788 67.2404 50.9772 67.1557 54.7864 67.4854C55.549 67.548 56.2287 67.6318 56.8246 67.7387C56.9582 68.0518 57.1378 68.3438 57.3551 68.6063C57.916 69.2574 58.6362 69.7529 59.4458 70.0439C59.735 70.1259 60.0187 70.2235 60.2968 70.3368C60.6385 70.6104 60.9443 70.9253 61.2077 71.2744C61.6074 71.7727 62.2512 72.4874 63.139 73.4194C63.4568 73.914 63.7414 74.4298 63.9891 74.9639C64.3538 75.7533 64.7176 76.2322 65.0796 76.4007C65.3854 76.5674 65.74 76.619 66.0807 76.5481L65.4802 78.6931C65.3393 79.4732 65.4968 80.2772 65.9205 80.9477V80.9873C65.7869 81.1209 65.6405 81.2719 65.4802 81.4414C65.017 81.8521 64.5721 82.2823 64.1457 82.7317C64.3603 83.3193 64.4294 83.9502 64.3465 84.57C64.3336 85.025 64.2488 85.4763 64.0923 85.9036L63.9993 86.3577L67.5718 83.6159L68.1189 83.0688C69.5391 81.7453 70.5642 80.7202 71.1941 79.9936C72.3353 78.6443 73.2443 77.1145 73.8826 75.4668C74.6092 73.5419 75.0043 71.1049 75.0661 68.1586C75.2889 67.6014 75.5109 67.0553 75.7338 66.5211C76.0626 65.5633 76.4264 64.3402 76.8242 62.8518C77.4533 60.4996 77.7876 59.2765 77.8254 59.1835C78.8422 55.7923 80.3305 52.5614 82.2444 49.5838C82.8384 48.5541 82.936 47.8256 82.5382 47.3983C80.2596 49.4282 78.5171 51.9895 77.4643 54.8538L76.7008 57.0817C76.1252 58.5424 75.4298 59.9543 74.623 61.3008C74.6258 61.1351 74.6083 60.9693 74.5696 60.8072C74.6184 60.5539 74.6857 60.3043 74.7695 60.0602C75.1029 59.0435 75.498 58.0469 75.9539 57.078C76.7211 55.2867 77.4146 53.7919 78.0354 52.5955C78.8836 51.0454 79.8313 49.5516 80.8702 48.1222C82.8587 45.6364 84.0348 44.0965 84.3995 43.5024C84.7817 42.9452 84.9908 42.2876 85 41.6116C84.9429 41.2754 84.7845 40.9641 84.546 40.721C84.3148 40.4788 83.9906 40.3471 83.6553 40.3609C83.3615 40.4318 82.9802 40.733 82.5115 41.2644C80.9669 43.262 79.3082 45.1685 77.5445 46.9755L74.9629 49.6639C74.6958 49.9568 74.4131 50.2543 74.1128 50.5546C74.5227 49.7579 74.9896 48.9916 75.51 48.2622C76.4328 47.0732 77.1125 46.177 77.5482 45.5738C78.6396 43.9869 79.567 41.5545 80.3296 38.2794C79.8673 38.2435 79.4546 38.7408 79.0927 39.7705C78.6322 40.7274 77.9727 41.5748 77.1577 42.2554L74.7732 44.4934C73.8964 45.5231 73.1283 46.6412 72.4817 47.8293C72.7838 46.7729 73.1964 45.4015 73.7186 43.7161L77.7517 31.1877C78.0455 29.9894 77.8945 29.2747 77.2976 29.0436C76.6686 28.8474 76.1224 29.3134 75.6601 30.4407C74.6304 32.7221 72.9929 35.2871 70.7465 38.1357C69.9637 39.1829 69.1145 40.1785 68.2055 41.1179C67.791 41.6291 67.3609 42.1264 66.9142 42.609C67.2172 42.0841 67.4484 41.6715 67.6087 41.3712C67.9559 40.803 68.3381 40.2559 68.7526 39.7337C69.3457 39.1046 69.7767 38.6257 70.0429 38.296C70.9363 37.3298 71.6289 36.1961 72.0811 34.9601C72.4458 34.1625 72.3657 33.6652 71.8407 33.4699C71.5745 33.3631 71.2236 33.492 70.7907 33.8567C69.2002 35.3221 67.3278 37.643 65.1735 40.8214C65.0971 40.7855 65.0087 40.7855 64.9332 40.8214C64.7075 40.8536 64.4975 40.9568 64.3327 41.1143C63.991 41.5278 63.6926 41.9745 63.442 42.4488C63.21 42.9452 62.9429 43.426 62.6454 43.8865C62.0412 44.6012 61.3366 45.2247 60.5538 45.7377C60.8918 45.1086 61.4241 44.1812 62.1517 42.9553C63.4466 40.6731 64.5767 38.3015 65.5336 35.8581C65.7077 35.4501 65.7897 35.0098 65.774 34.5668C65.7169 34.3412 65.6018 34.134 65.4397 33.9663C65.2841 33.807 65.051 33.7499 64.8401 33.8199C64.5463 33.8466 64.2967 34.1432 64.0923 34.7105C63.5682 35.8148 62.8609 36.8224 62.0016 37.6927C61.4435 38.2858 60.5823 39.1755 59.4191 40.3609L59.4099 40.371ZM69.7592 77.0952L69.6128 77.2416C69.6257 77.2296 69.633 77.213 69.634 77.1946C69.633 77.1771 69.6257 77.1605 69.6128 77.1486C69.6561 77.1237 69.704 77.109 69.7528 77.1053L69.7592 77.0952Z" fill="black"/>
<path d="M47.4783 82.2314C46.5278 81.8382 45.7523 81.1143 45.2937 80.1933L44.9999 79.7935L44.4031 80.2798C44.5274 81.7875 45.4898 83.0953 46.8916 83.6627C49.5377 84.79 52.0538 84.6251 54.4392 83.169L54.8399 84.2595C55.142 84.2595 55.4395 84.2733 55.7305 84.2991C55.7922 84.2484 55.8429 84.1849 55.8769 84.1131C55.9368 83.3532 55.7848 82.5925 55.4367 81.9146C55.34 81.677 55.2286 81.4449 55.1033 81.2211L53.9594 80.4732L53.5588 80.6206L53.3589 81.0737L53.812 82.0749C52.1533 82.9646 50.0415 83.0134 47.4746 82.2213L47.4783 82.2314ZM44.346 71.0873L45.0404 72.6318L45.2937 72.9652C45.4705 73.1402 45.7127 73.2323 45.9605 73.2185C46.2174 73.2268 46.4597 73.1006 46.6015 72.8851C46.7341 72.6631 46.7037 72.2643 46.5076 71.6878L46.3473 71.2475L45.9476 70.7005C45.7827 70.4932 45.5783 70.321 45.3471 70.1939C45.08 70.0917 44.7807 70.1322 44.5495 70.3007C44.3496 70.5098 44.2741 70.8082 44.3496 71.0873H44.346ZM54.3564 73.9231C53.8848 74.0557 53.6011 74.2565 53.5054 74.5236C53.4427 74.8487 53.6067 75.1765 53.906 75.3202C54.1804 75.4639 54.4871 75.533 54.7966 75.5201C55.422 75.521 56.0427 75.4169 56.634 75.2134C56.9029 75.0955 57.1912 75.0273 57.485 75.0135L58.1251 75.0669C58.534 75.0237 58.8481 74.6866 58.8628 74.2767C58.9107 74.0778 58.872 73.8678 58.7588 73.6993C58.6446 73.5298 58.464 73.4156 58.2623 73.3861C58.068 73.3502 57.8691 73.3502 57.6747 73.3861C56.5447 73.4285 55.4238 73.6118 54.3398 73.9323L54.3564 73.9231ZM65.4803 75.9437C65.297 74.8671 64.8696 73.8466 64.2295 72.9625C63.6171 72.0709 62.7228 71.4106 61.6912 71.0873C61.3449 70.927 60.9462 70.927 60.5999 71.0873C60.2876 71.2346 60.0786 71.5395 60.0537 71.8849C60.0187 72.2533 60.108 72.6226 60.307 72.9357C60.6726 73.5252 61.1221 74.0584 61.6406 74.5199C62.4391 75.5136 62.7403 77.2046 62.545 79.5928L62.3452 82.4285C62.3359 82.9056 62.2319 83.3763 62.0375 83.8128C61.8423 84.1416 61.3809 84.4916 60.6533 84.8637C58.5681 85.9339 56.4056 86.8466 54.1823 87.5917C51.6965 88.3543 49.429 88.603 47.3779 88.3386C46.5287 88.2723 45.7008 88.0365 44.9437 87.6451C44.2032 87.1395 43.5198 86.5546 42.9055 85.9007C40.7531 83.7106 39.4149 81.7719 38.8927 80.0864C38.8282 79.8267 38.8098 79.5559 38.8393 79.2898C38.9912 79.0199 39.1248 78.7399 39.2399 78.4526C39.2979 78.1735 39.2795 77.8843 39.1865 77.6154C39.1137 77.3363 39.064 77.0517 39.0391 76.7644C39.0962 76.4531 39.1137 76.1362 39.0925 75.8203C39.0898 75.4132 38.8779 75.0356 38.5326 74.8201C38.2286 74.5687 37.8308 74.4618 37.4421 74.5263C37.0461 74.6037 36.7025 74.8459 36.4981 75.1931C36.2733 75.5201 36.2153 75.9318 36.3406 76.3075C35.3827 76.8058 34.9379 77.6844 35.007 78.9425C35.0429 79.7051 35.3763 80.686 36.0072 81.8842C37.1944 83.8644 38.6109 85.6972 40.2272 87.3449C40.9382 88.1507 41.7579 88.8544 42.6614 89.4365C44.1535 90.3943 46.0618 90.8742 48.3855 90.8742C50.4826 90.8815 52.5696 90.5997 54.5894 90.037C55.9838 89.6722 57.9851 89.0054 60.5934 88.0356C61.4011 87.7593 62.1821 87.4121 62.9282 86.9976C63.6484 86.6164 64.2378 86.0269 64.62 85.3067C64.8862 84.8093 65.087 83.8635 65.2196 82.4718C65.3891 81.0507 65.5005 79.9768 65.5539 79.2492C65.6387 78.1477 65.6138 77.0407 65.4803 75.9437Z" fill="black"/>
</g>
<defs>
<filter id="filter0_dd" x="20" y="14" width="80" height="91.8743" filterUnits="userSpaceOnUse" color-interpolation-filters="sRGB">
<feFlood flood-opacity="0" result="BackgroundImageFix"/>
<feColorMatrix in="SourceAlpha" type="matrix" values="0 0 0 0 0 0 0 0 0 0 0 0 0 0 0 0 0 0 127 0"/>
<feOffset/>
<feGaussianBlur stdDeviation="7.5"/>
<feColorMatrix type="matrix" values="0 0 0 0 1 0 0 0 0 1 0 0 0 0 1 0 0 0 0.3 0"/>
<feBlend mode="normal" in2="BackgroundImageFix" result="effect1_dropShadow"/>
<feColorMatrix in="SourceAlpha" type="matrix" values="0 0 0 0 0 0 0 0 0 0 0 0 0 0 0 0 0 0 127 0"/>
<feOffset/>
<feGaussianBlur stdDeviation="2.5"/>
<feColorMatrix type="matrix" values="0 0 0 0 1 0 0 0 0 1 0 0 0 0 1 0 0 0 0.6 0"/>
<feBlend mode="normal" in2="effect1_dropShadow" result="effect2_dropShadow"/>
<feBlend mode="normal" in="SourceGraphic" in2="effect2_dropShadow" result="shape"/>
</filter>
</defs>
</svg>
