<svg xmlns="http://www.w3.org/2000/svg" width="67" height="67"><path d="M 36.741 51.384 C 36.625 51.104 36.476 50.656 36.292 50.04 C 36.166 49.585 36.016 49.136 35.843 48.696 C 35.359 47.684 34.736 46.744 33.993 45.904 C 33.481 45.269 32.925 44.67 32.33 44.111 C 31.744 43.57 31.042 43.169 30.277 42.942 L 29.596 42.797 C 29.364 42.746 29.143 42.652 28.944 42.521 C 28.73 42.352 28.545 42.149 28.397 41.92 C 28.136 41.515 27.982 41.283 27.934 41.225 C 27.66 40.846 27.283 40.554 26.847 40.385 C 26.401 40.212 25.917 40.162 25.446 40.24 C 25.031 40.323 24.635 40.479 24.276 40.7 C 24.102 40.796 23.74 41.028 23.189 41.395 C 21.977 42.198 20.658 42.826 19.271 43.26 C 18.807 43.415 18.098 43.618 17.145 43.869 C 16.436 44.06 15.748 44.322 15.091 44.651 C 14.125 45.153 13.039 46.068 11.832 47.396 C 11.392 47.837 10.982 48.307 10.604 48.801 C 10.222 49.295 9.911 49.84 9.681 50.42 C 9.253 51.728 9.233 53.135 9.623 54.455 C 9.78 55.118 9.982 55.77 10.227 56.407 L 10.952 58.315 C 11.222 59.057 11.435 59.596 11.589 59.934 C 11.82 60.462 12.132 60.951 12.513 61.383 C 12.865 61.734 13.263 62.035 13.697 62.277 C 13.958 62.422 14.406 62.644 15.041 62.944 C 16.12 63.427 17.054 63.846 17.844 64.2 C 18.899 64.717 19.988 65.161 21.103 65.53 C 22.203 65.886 23.365 66.009 24.515 65.892 C 24.963 65.841 25.407 65.759 25.844 65.646 C 26.431 65.481 26.869 65.36 27.159 65.283 C 29.056 64.82 30.469 64.458 31.396 64.197 C 32.791 63.835 34.117 63.246 35.322 62.455 C 36.392 61.796 37.231 60.822 37.723 59.666 C 38.027 58.704 38.169 57.698 38.143 56.689 C 38.303 55.246 38.004 53.788 37.288 52.524 C 37.008 51.974 36.826 51.594 36.741 51.384 Z" fill="rgb(255,255,255)"></path><path d="M 11.774 51.108 C 12.111 51.541 12.584 51.846 13.118 51.974 C 13.525 52.143 13.975 52.179 14.403 52.075 C 14.936 51.974 15.404 51.662 15.703 51.21 C 16.019 50.753 16.172 50.203 16.138 49.649 C 16.059 49.108 15.793 48.611 15.385 48.247 C 14.987 47.863 14.482 47.611 13.936 47.523 C 13.309 47.503 12.694 47.699 12.194 48.077 C 11.702 48.454 11.392 49.021 11.339 49.638 C 11.346 50.152 11.497 50.654 11.774 51.087 M 35.452 54.708 C 35.635 54.026 35.579 53.301 35.293 52.655 C 35.042 51.978 34.568 51.407 33.949 51.036 C 32.725 50.312 31.337 50.384 29.784 51.253 C 29.196 51.584 28.726 52.091 28.441 52.702 C 28.112 53.452 28.217 54.322 28.716 54.973 C 29.184 55.604 29.793 56.119 30.494 56.476 C 31.017 56.745 31.586 56.912 32.171 56.968 C 32.881 57.037 33.592 56.841 34.166 56.418 C 34.771 56.011 35.223 55.414 35.452 54.723 Z" fill="rgb(255,204,0)"></path><path d="M 40.211 50.022 C 39.853 49.087 39.063 47.975 37.839 46.683 C 35.786 44.553 34.037 43.113 32.591 42.362 C 30.51 41.283 27.672 40.71 24.077 40.642 C 22.757 40.615 21.437 40.687 20.129 40.859 C 17.776 41.367 15.59 42.461 13.773 44.039 C 13.162 44.5 12.6 45.023 12.096 45.6 L 9.293 49.432 C 8.282 50.839 7.557 51.899 7.12 52.611 C 7.41 53.98 7.737 55.618 8.102 57.526 L 13.534 49.707 C 14.171 48.81 14.893 47.977 15.689 47.219 C 17.164 45.85 19.197 44.969 21.788 44.575 C 24.03 44.345 26.296 44.512 28.48 45.067 C 29.251 45.208 30.01 45.406 30.751 45.661 C 31.717 46.096 33.009 47.084 34.626 48.624 C 35.995 50.061 36.862 51.159 37.227 51.92 C 37.796 53.105 38.048 54.777 37.98 56.936 C 37.903 58.594 37.811 59.818 37.705 60.608 C 37.637 61.436 38.61 61.542 40.624 60.927 C 39.795 61.149 39.704 61.004 40.348 60.492 C 40.387 60.096 40.406 59.701 40.406 59.308 L 40.624 54.016 C 40.636 52.116 40.498 50.785 40.211 50.022 Z" fill="rgb(0,0,0)"></path><path d="M 33.026 12.35 C 32.197 13.316 31.012 15.099 29.469 17.699 C 28.032 20.07 26.784 21.795 25.724 22.874 C 24.877 23.709 23.958 24.469 22.979 25.145 C 22.878 25.222 21.908 25.873 20.071 27.097 C 19.571 27.414 19.102 27.778 18.669 28.183 C 16.811 29.254 15.196 30.701 13.929 32.432 C 12.454 34.445 11.624 36.445 11.441 38.433 C 11.369 39.453 11.369 40.476 11.441 41.497 C 11.497 42.506 11.443 43.519 11.281 44.517 C 10.995 45.666 10.521 46.76 9.88 47.755 C 9.445 48.438 8.78 49.43 7.884 50.732 C 7.056 51.879 6.892 52.793 7.392 53.477 C 7.623 53.823 8.001 54.042 8.417 54.071 C 8.862 54.146 9.32 54.069 9.717 53.854 C 10.286 53.564 10.879 52.952 11.495 52.017 C 13.509 49.108 14.675 46.79 14.994 45.064 C 15.077 44.586 15.116 44.1 15.109 43.615 C 15.431 43.759 15.791 43.795 16.134 43.717 L 17 43.354 C 17.276 43.258 17.532 43.111 17.753 42.92 C 18.029 42.728 18.221 42.438 18.289 42.109 C 18.382 42.106 18.475 42.091 18.564 42.065 C 20.723 41.524 23.87 41.432 28.006 41.79 C 28.834 41.858 29.572 41.949 30.219 42.065 C 30.364 42.405 30.559 42.722 30.795 43.007 C 31.404 43.714 32.186 44.252 33.065 44.568 C 33.379 44.657 33.687 44.763 33.989 44.886 C 34.36 45.183 34.692 45.525 34.978 45.904 C 35.412 46.445 36.111 47.221 37.075 48.233 C 37.42 48.77 37.729 49.33 37.998 49.91 C 38.394 50.767 38.789 51.287 39.182 51.47 C 39.514 51.651 39.899 51.707 40.269 51.63 L 39.617 53.959 C 39.464 54.806 39.635 55.679 40.095 56.407 L 40.095 56.45 C 39.95 56.595 39.791 56.759 39.617 56.943 C 39.114 57.389 38.631 57.856 38.168 58.344 C 38.401 58.982 38.476 59.667 38.386 60.34 C 38.372 60.834 38.28 61.324 38.11 61.788 L 38.009 62.281 L 41.888 59.304 L 42.482 58.71 C 44.024 57.273 45.137 56.16 45.821 55.371 C 47.06 53.906 48.047 52.245 48.74 50.456 C 49.529 48.366 49.958 45.72 50.025 42.521 C 50.267 41.916 50.508 41.323 50.75 40.743 C 51.107 39.703 51.502 38.375 51.934 36.759 C 52.617 34.205 52.98 32.877 53.021 32.776 C 54.125 29.094 55.741 25.586 57.819 22.353 C 58.464 21.235 58.57 20.444 58.138 19.98 C 55.664 22.184 53.772 24.965 52.629 28.075 L 51.8 30.494 C 51.175 32.08 50.42 33.613 49.544 35.075 C 49.547 34.895 49.528 34.715 49.486 34.539 C 49.539 34.264 49.612 33.993 49.703 33.728 C 50.065 32.624 50.494 31.542 50.989 30.49 C 51.822 28.545 52.575 26.922 53.249 25.623 C 54.17 23.94 55.199 22.318 56.327 20.766 C 58.486 18.067 59.763 16.395 60.159 15.75 C 60.574 15.145 60.801 14.431 60.811 13.697 C 60.749 13.332 60.577 12.994 60.318 12.73 C 60.067 12.467 59.715 12.324 59.351 12.339 C 59.032 12.416 58.618 12.743 58.109 13.32 C 56.432 15.489 54.631 17.559 52.716 19.521 L 49.913 22.44 C 49.623 22.758 49.316 23.081 48.99 23.407 C 49.435 22.542 49.942 21.71 50.507 20.918 C 51.509 19.627 52.247 18.654 52.72 17.999 C 53.905 16.276 54.912 13.635 55.74 10.079 C 55.238 10.04 54.79 10.58 54.397 11.698 C 53.897 12.737 53.181 13.657 52.296 14.396 L 49.707 16.826 C 48.755 17.944 47.921 19.158 47.219 20.448 C 47.547 19.301 47.995 17.812 48.562 15.982 L 52.941 2.379 C 53.26 1.078 53.096 0.302 52.448 0.051 C 51.765 -0.162 51.172 0.344 50.67 1.568 C 49.552 4.045 47.774 6.83 45.335 9.923 C 44.485 11.06 43.563 12.141 42.576 13.161 C 42.126 13.716 41.659 14.256 41.174 14.78 C 41.503 14.21 41.754 13.762 41.928 13.436 C 42.305 12.819 42.72 12.225 43.17 11.658 C 43.814 10.975 44.282 10.455 44.571 10.097 C 45.541 9.048 46.293 7.817 46.784 6.475 C 47.18 5.609 47.093 5.069 46.523 4.857 C 46.234 4.741 45.853 4.881 45.383 5.277 C 43.656 6.868 41.623 9.388 39.284 12.839 C 39.201 12.8 39.105 12.8 39.023 12.839 C 38.778 12.874 38.55 12.986 38.371 13.157 C 38 13.606 37.676 14.091 37.404 14.606 C 37.152 15.145 36.862 15.667 36.539 16.167 C 35.883 16.943 35.118 17.62 34.268 18.177 C 34.635 17.494 35.213 16.487 36.003 15.156 C 37.409 12.678 38.636 10.103 39.675 7.45 C 39.864 7.007 39.953 6.529 39.936 6.048 C 39.874 5.803 39.749 5.578 39.573 5.396 C 39.404 5.223 39.151 5.161 38.922 5.237 C 38.603 5.266 38.332 5.588 38.11 6.204 C 37.541 7.403 36.773 8.497 35.84 9.442 C 35.234 10.086 34.299 11.052 33.036 12.339 M 44.263 52.224 L 44.104 52.383 C 44.118 52.37 44.126 52.352 44.127 52.332 C 44.126 52.313 44.118 52.295 44.104 52.282 C 44.151 52.255 44.203 52.239 44.256 52.235 Z" fill="rgb(0,0,0)"></path><path d="M 20.071 57.801 C 19.039 57.374 18.197 56.588 17.699 55.588 L 17.38 55.154 L 16.732 55.682 C 16.867 57.319 17.912 58.739 19.434 59.355 C 22.307 60.579 25.039 60.4 27.629 58.819 L 28.064 60.003 C 28.392 60.003 28.715 60.018 29.031 60.046 C 29.098 59.991 29.153 59.922 29.19 59.844 C 29.255 59.019 29.09 58.193 28.712 57.457 C 28.607 57.199 28.486 56.947 28.35 56.704 L 27.108 55.892 L 26.673 56.052 L 26.456 56.544 L 26.948 57.631 C 25.147 58.597 22.854 58.65 20.067 57.79 M 16.67 45.701 L 17.424 47.378 L 17.699 47.74 C 17.891 47.93 18.154 48.03 18.423 48.015 C 18.702 48.024 18.965 47.887 19.119 47.653 C 19.263 47.412 19.23 46.979 19.017 46.353 L 18.843 45.875 L 18.409 45.281 C 18.23 45.056 18.008 44.869 17.757 44.731 C 17.467 44.62 17.142 44.664 16.891 44.847 C 16.674 45.074 16.592 45.398 16.674 45.701 M 27.539 48.78 C 27.027 48.924 26.719 49.142 26.615 49.432 C 26.547 49.785 26.725 50.141 27.05 50.297 C 27.348 50.453 27.681 50.528 28.017 50.514 C 28.696 50.515 29.37 50.402 30.012 50.181 C 30.304 50.053 30.617 49.979 30.936 49.964 L 31.631 50.022 C 32.075 49.975 32.416 49.609 32.432 49.164 C 32.484 48.948 32.442 48.72 32.319 48.537 C 32.195 48.353 31.999 48.229 31.78 48.197 C 31.569 48.158 31.353 48.158 31.142 48.197 C 29.915 48.243 28.698 48.442 27.521 48.79 M 39.617 50.974 C 39.418 49.805 38.954 48.697 38.259 47.737 C 37.594 46.769 36.623 46.052 35.503 45.701 C 35.127 45.527 34.694 45.527 34.318 45.701 C 33.979 45.861 33.752 46.192 33.725 46.567 C 33.687 46.967 33.784 47.368 34 47.708 C 34.397 48.348 34.885 48.927 35.448 49.428 C 36.315 50.507 36.642 52.343 36.43 54.936 L 36.213 58.015 C 36.203 58.533 36.09 59.044 35.879 59.518 C 35.667 59.875 35.166 60.255 34.376 60.659 C 32.112 61.821 29.764 62.812 27.35 63.621 C 24.651 64.449 22.189 64.719 19.962 64.432 C 19.04 64.36 18.141 64.104 17.319 63.679 C 16.515 63.13 15.773 62.495 15.106 61.785 C 12.769 59.407 11.316 57.302 10.749 55.472 C 10.679 55.19 10.659 54.896 10.691 54.607 C 10.856 54.314 11.001 54.01 11.126 53.698 C 11.189 53.395 11.169 53.081 11.068 52.789 C 10.989 52.486 10.935 52.177 10.908 51.865 C 10.97 51.527 10.989 51.183 10.966 50.84 C 10.963 50.398 10.733 49.988 10.358 49.754 C 10.028 49.481 9.596 49.365 9.174 49.435 C 8.744 49.519 8.371 49.782 8.149 50.159 C 7.905 50.514 7.842 50.961 7.978 51.369 C 6.938 51.91 6.455 52.864 6.53 54.23 C 6.569 55.058 6.931 56.123 7.616 57.424 C 8.905 59.574 10.443 61.564 12.198 63.353 C 12.97 64.228 13.86 64.992 14.841 65.624 C 16.461 66.664 18.533 67.185 21.056 67.185 C 23.333 67.193 25.599 66.887 27.792 66.276 C 29.306 65.88 31.479 65.156 34.311 64.103 C 35.188 63.803 36.036 63.426 36.846 62.976 C 37.628 62.562 38.268 61.922 38.683 61.14 C 38.972 60.6 39.19 59.573 39.334 58.062 C 39.518 56.519 39.639 55.353 39.697 54.563 C 39.789 53.367 39.762 52.165 39.617 50.974 Z" fill="rgb(0,0,0)"></path></svg>