<svg width="860" height="619" viewBox="0 0 860 619" fill="none" xmlns="http://www.w3.org/2000/svg">
<rect x="791.895" y="174.633" width="1416" height="155.044" transform="rotate(135 791.895 174.633)" fill="url(#paint0_linear)"/>
<path d="M860 149C860 231.29 793.29 298 711 298C628.71 298 562 231.29 562 149C562 66.7096 628.71 0 711 0C793.29 0 860 66.7096 860 149Z" fill="#E2D1E7"/>
<path d="M845 149C845 223.006 785.006 283 711 283C636.994 283 577 223.006 577 149C577 74.9938 636.994 15 711 15C785.006 15 845 74.9938 845 149Z" fill="#A65FB8"/>
<path d="M825 149C825 211.96 773.96 263 711 263C648.04 263 597 211.96 597 149C597 86.0395 648.04 35 711 35C773.96 35 825 86.0395 825 149Z" fill="#6E2BA4"/>
<path d="M815 149C815 206.438 768.438 253 711 253C653.562 253 607 206.438 607 149C607 91.5624 653.562 45 711 45C768.438 45 815 91.5624 815 149Z" fill="#3E2BA4"/>
<defs>
<linearGradient id="paint0_linear" x1="791.895" y1="259.775" x2="1959.46" y2="233.148" gradientUnits="userSpaceOnUse">
<stop stop-color="#BB90D5"/>
<stop offset="0.587331" stop-color="#CA99E7" stop-opacity="0"/>
</linearGradient>
</defs>
</svg>
