<svg width="846" height="1212" viewBox="0 0 846 1212" fill="none" xmlns="http://www.w3.org/2000/svg">
<rect width="1416" height="185.684" transform="matrix(-0.707107 -0.707107 -0.707107 0.707107 788.561 1001.26)" fill="url(#paint0_linear)"/>
<path d="M846 1063C846 1145.29 779.29 1212 697 1212C614.71 1212 548 1145.29 548 1063C548 980.71 614.71 914 697 914C779.29 914 846 980.71 846 1063Z" fill="#E2D1E7"/>
<path d="M831 1063C831 1137.01 771.006 1197 697 1197C622.994 1197 563 1137.01 563 1063C563 988.994 622.994 929 697 929C771.006 929 831 988.994 831 1063Z" fill="#A65FB8"/>
<path d="M811 1063C811 1125.96 759.96 1177 697 1177C634.04 1177 583 1125.96 583 1063C583 1000.04 634.04 949 697 949C759.96 949 811 1000.04 811 1063Z" fill="#6E2BA4"/>
<path d="M801 1063C801 1120.44 754.438 1167 697 1167C639.562 1167 593 1120.44 593 1063C593 1005.56 639.562 959 697 959C754.438 959 801 1005.56 801 1063Z" fill="#3E2BA4"/>
<defs>
<linearGradient id="paint0_linear" x1="8.48737e-06" y1="101.969" x2="1167.74" y2="79.7313" gradientUnits="userSpaceOnUse">
<stop stop-color="#BB90D5"/>
<stop offset="0.552083" stop-color="#CA99E7" stop-opacity="0"/>
</linearGradient>
</defs>
</svg>
